<svg width="40" height="40" viewBox="0 0 40 40" fill="none" xmlns="http://www.w3.org/2000/svg">
<mask id="mask0" mask-type="alpha" maskUnits="userSpaceOnUse" x="0" y="0" width="40" height="40">
<rect width="40" height="40" fill="#C4C4C4"/>
</mask>
<g mask="url(#mask0)">
<rect width="40" height="40" fill="#F5EFFF"/>
<path d="M36.4442 40.0007H3.33331C3.33331 40.0007 3.77769 37.8943 4.41093 35.7791C5.04418 33.6638 6.35289 32.7773 8.04821 32.344C8.52592 32.2218 9.40135 31.9663 10.4123 31.6663C10.8012 31.5485 11.2122 31.4263 11.6277 31.2997C11.821 31.2419 12.0165 31.1819 12.2121 31.1219C14.3451 30.4731 16.427 29.8266 16.427 29.8266L19.871 29.5511L19.891 29.5488L19.911 29.5511L23.0172 29.7999C23.0172 29.7999 24.8858 30.3598 26.9256 30.9642C27.3166 31.0797 27.7166 31.1975 28.1076 31.313C29.6341 31.7596 31.0761 32.1773 31.7293 32.344C33.4246 32.7795 34.7333 33.6638 35.3666 35.7791C35.9998 37.8943 36.4442 40.0007 36.4442 40.0007Z" fill="#19274B"/>
<path d="M28.1076 31.3101C27.9077 32.1699 27.5633 33.3031 26.9811 34.423C25.8435 36.6182 23.8016 38.7757 20.1665 38.7757C16.3159 38.7757 14.114 36.5404 12.8853 34.3963C12.2032 33.2031 11.821 32.0389 11.6255 31.299C11.8188 31.2412 12.0143 31.1812 12.2099 31.1212C14.3429 30.4724 16.4248 29.8258 16.4248 29.8258L19.8688 29.5503L19.8888 29.5481L19.9088 29.5503L23.015 29.7992C23.015 29.7992 24.8836 30.3591 26.9233 30.9635C27.3166 31.0768 27.7143 31.1945 28.1076 31.3101Z" fill="#FF8881"/>
<path d="M15.5494 30.439C15.4583 30.439 15.3716 30.4034 15.3072 30.339C15.2916 30.3234 15.2761 30.3056 15.265 30.2879C15.2516 30.2701 15.2428 30.2501 15.2339 30.2279C15.225 30.2079 15.2183 30.1857 15.2139 30.1634C15.2094 30.1412 15.2072 30.119 15.2072 30.0968C15.2072 30.0746 15.2094 30.0524 15.2139 30.0301C15.2183 30.0079 15.225 29.9857 15.2339 29.9657C15.2428 29.9457 15.2516 29.9257 15.265 29.9079C15.2783 29.8901 15.2916 29.8724 15.3072 29.8568C15.3716 29.7924 15.4583 29.7568 15.5494 29.7568C15.6405 29.7568 15.7271 29.7924 15.7916 29.8568C15.8071 29.8724 15.8227 29.8901 15.8338 29.9079C15.8449 29.9257 15.856 29.9457 15.8649 29.9657C15.8738 29.9857 15.8805 30.0079 15.8849 30.0301C15.8893 30.0524 15.8916 30.0746 15.8916 30.0968C15.8916 30.119 15.8893 30.1412 15.8849 30.1634C15.8805 30.1857 15.8738 30.2057 15.8649 30.2279C15.856 30.2479 15.8449 30.2679 15.8338 30.2879C15.8205 30.3056 15.8071 30.3234 15.7916 30.339C15.776 30.3545 15.7582 30.3701 15.7405 30.3812C15.7227 30.3923 15.7027 30.4034 15.6805 30.4123C15.6605 30.4212 15.6383 30.4279 15.616 30.4323C15.5938 30.4367 15.5716 30.439 15.5494 30.439Z" fill="#F5EFFF"/>
<path d="M19.911 33.9229C19.7221 33.9229 19.5688 33.7674 19.5711 33.5808C19.5711 33.3919 19.7244 33.2386 19.9132 33.2408C20.1021 33.2408 20.2554 33.3941 20.2554 33.583C20.2532 33.7696 20.0999 33.9229 19.911 33.9229ZM20.4465 33.5719C20.4198 33.3852 20.5509 33.2119 20.7376 33.1853C20.9242 33.1586 21.0975 33.2897 21.1219 33.4763C21.1486 33.663 21.0175 33.8363 20.8309 33.863C20.8153 33.8652 20.7998 33.8652 20.7842 33.8652C20.6153 33.8652 20.4709 33.743 20.4465 33.5719ZM18.9889 33.8563C18.8023 33.8296 18.6734 33.6541 18.7001 33.4675C18.7267 33.2808 18.9023 33.1519 19.0889 33.1786C19.2755 33.2053 19.4044 33.3786 19.3777 33.5652C19.3533 33.7363 19.2067 33.8585 19.04 33.8585C19.0222 33.8585 19.0045 33.8585 18.9889 33.8563ZM21.313 33.4363C21.253 33.2564 21.3508 33.0631 21.5308 33.0053C21.7108 32.9453 21.9041 33.0431 21.9618 33.223C22.0218 33.403 21.9241 33.5963 21.7441 33.6541C21.7085 33.6652 21.673 33.6719 21.6374 33.6719C21.4952 33.6719 21.3597 33.5808 21.313 33.4363ZM18.0757 33.6408C17.8957 33.5808 17.8002 33.3852 17.8624 33.2075C17.9224 33.0275 18.1157 32.932 18.2957 32.9942C18.4757 33.0542 18.5712 33.2497 18.509 33.4275C18.4601 33.5697 18.3268 33.6608 18.1846 33.6608C18.149 33.6585 18.1135 33.6519 18.0757 33.6408ZM22.1396 33.1431C22.0418 32.9809 22.0951 32.772 22.2573 32.6742C22.4195 32.5765 22.6284 32.6298 22.7262 32.792C22.8239 32.9542 22.7706 33.163 22.6084 33.2608C22.5529 33.2941 22.4929 33.3097 22.4329 33.3097C22.3196 33.3097 22.204 33.2497 22.1396 33.1431ZM17.2158 33.243C17.0536 33.1453 17.0025 32.9364 17.1003 32.7742C17.1981 32.612 17.4069 32.5609 17.5691 32.6587C17.7313 32.7564 17.7824 32.9675 17.6847 33.1275C17.6202 33.2342 17.5069 33.2919 17.3914 33.2919C17.3314 33.2919 17.2692 33.2764 17.2158 33.243ZM22.8817 32.672C22.7484 32.5387 22.7506 32.3209 22.8839 32.1876C23.0172 32.0543 23.235 32.0543 23.3683 32.1899C23.5016 32.3232 23.5016 32.5409 23.3661 32.6742C23.2994 32.7409 23.2128 32.7742 23.1261 32.7742C23.0372 32.7742 22.9484 32.7409 22.8817 32.672ZM16.4604 32.6565C16.3248 32.5231 16.3248 32.3076 16.4559 32.1721C16.5893 32.0365 16.8048 32.0365 16.9403 32.1699C17.0758 32.3032 17.0759 32.5187 16.9425 32.652C16.8759 32.7209 16.787 32.7542 16.6981 32.7542C16.6137 32.7542 16.527 32.7209 16.4604 32.6565ZM23.4883 32.0365C23.3261 31.9366 23.2772 31.7255 23.3772 31.5655C23.4772 31.4055 23.6883 31.3544 23.8482 31.4544C24.0082 31.5544 24.0593 31.7633 23.9593 31.9255C23.8949 32.0299 23.7816 32.0876 23.6683 32.0876C23.606 32.0876 23.5438 32.0721 23.4883 32.0365ZM15.8649 31.9121C15.7649 31.7521 15.8116 31.5411 15.9716 31.4411C16.1315 31.3411 16.3426 31.3877 16.4426 31.5477C16.5426 31.7077 16.4959 31.9188 16.336 32.0188C16.2782 32.0543 16.216 32.0721 16.1538 32.0721C16.0404 32.0721 15.9293 32.0165 15.8649 31.9121ZM23.9304 31.2767C23.7527 31.2144 23.6594 31.0189 23.7216 30.8412C23.7838 30.6634 23.9793 30.5701 24.1571 30.6323C24.3348 30.6945 24.4281 30.89 24.3659 31.0678C24.3171 31.2078 24.1837 31.2966 24.0438 31.2966C24.006 31.2966 23.9682 31.29 23.9304 31.2767ZM15.445 31.0633C15.3805 30.8856 15.4694 30.6901 15.6472 30.6234C15.8249 30.5568 16.0204 30.6479 16.0871 30.8256C16.1515 31.0011 16.0627 31.1989 15.8849 31.2655C15.8449 31.2811 15.8049 31.2878 15.7649 31.2878C15.6272 31.2855 15.4961 31.2011 15.445 31.0633Z" fill="#F5EFFF"/>
<path d="M24.246 30.439C24.2238 30.439 24.2015 30.4367 24.1793 30.4323C24.1571 30.4279 24.1371 30.4212 24.1149 30.4123C24.0949 30.4034 24.0749 30.3923 24.0549 30.3812C24.0371 30.3679 24.0194 30.3545 24.0038 30.339C23.9882 30.3234 23.9727 30.3056 23.9616 30.2879C23.9482 30.2701 23.9371 30.2501 23.9305 30.2279C23.9216 30.2079 23.9149 30.1857 23.9105 30.1634C23.906 30.1412 23.9038 30.119 23.9038 30.0968C23.9038 30.0746 23.906 30.0524 23.9105 30.0301C23.9149 30.0079 23.9216 29.9879 23.9305 29.9657C23.9394 29.9457 23.9505 29.9257 23.9616 29.9079C23.9727 29.8901 23.9882 29.8724 24.0038 29.8568C24.0194 29.8413 24.0371 29.8257 24.0549 29.8146C24.0727 29.8013 24.0927 29.7924 24.1149 29.7835C24.1349 29.7746 24.1571 29.7679 24.1793 29.7635C24.2238 29.7546 24.2682 29.7546 24.3126 29.7635C24.3349 29.7679 24.3549 29.7746 24.3771 29.7835C24.3971 29.7924 24.4171 29.8013 24.4348 29.8146C24.4526 29.8279 24.4704 29.8413 24.4882 29.8568C24.5037 29.8724 24.5171 29.8901 24.5304 29.9079C24.5437 29.9257 24.5526 29.9457 24.5615 29.9657C24.5704 29.9857 24.577 30.0079 24.5815 30.0301C24.5859 30.0524 24.5882 30.0746 24.5882 30.0968C24.5882 30.119 24.5859 30.1412 24.5815 30.1634C24.577 30.1857 24.5704 30.2057 24.5615 30.2279C24.5526 30.2479 24.5437 30.2679 24.5304 30.2879C24.5171 30.3056 24.5037 30.3234 24.4882 30.339C24.4726 30.3545 24.4548 30.3701 24.4348 30.3812C24.4171 30.3923 24.3971 30.4034 24.3771 30.4123C24.3571 30.4212 24.3349 30.4279 24.3126 30.4323C24.2904 30.4367 24.2682 30.439 24.246 30.439Z" fill="#F5EFFF"/>
<path d="M26.9811 34.4229C25.8435 36.6182 23.8016 38.7756 20.1665 38.7756C16.3159 38.7756 14.114 36.5404 12.8853 34.3962C16.036 35.165 21.393 35.9516 26.9811 34.4229Z" fill="#F5EFFF"/>
<path d="M19.9095 29.5459V29.5505L19.8888 29.5482L19.9095 29.5459Z" fill="#5D46C2"/>
<path d="M19.8894 29.5482L19.8688 29.5505V29.5459L19.8894 29.5482Z" fill="#5D46C2"/>
<path d="M24.1237 9.19774C24.077 9.37994 24.0148 9.56658 23.937 9.75322C23.9037 9.83321 23.8682 9.91542 23.8304 9.99763C23.8126 10.0354 23.7948 10.0732 23.7748 10.1132C23.0816 11.4841 21.6574 12.3284 20.122 12.3284H18.8C17.7312 12.3284 16.6981 11.9174 15.9337 11.1686C15.5938 10.8353 15.2583 10.442 14.9961 9.99096C14.9516 9.91542 14.9094 9.83543 14.8694 9.75544C14.845 9.70434 14.8205 9.65323 14.7983 9.5999C14.3028 8.42007 14.5583 6.62032 15.8759 5.42938C19.151 2.47202 25.1835 5.11164 24.1237 9.19774Z" fill="#E9356E"/>
<path d="M24.1236 9.19782C24.077 9.38001 24.0148 9.56665 23.937 9.75329C23.9037 9.83328 23.8681 9.91549 23.8303 9.9977C23.8126 10.0355 23.7948 10.0732 23.7748 10.1132C23.0816 11.4842 21.6573 12.3285 20.122 12.3285H18.7999C17.7312 12.3285 16.698 11.9174 15.9337 11.1686C15.5937 10.8354 15.2582 10.4421 14.996 9.99104C14.9516 9.91549 14.9094 9.83551 14.8694 9.75552C14.8449 9.70441 14.8205 9.65331 14.7983 9.59998C15.7537 8.96674 17.429 8.13574 19.6465 8.13574C21.4129 8.13574 22.9838 8.66456 24.1236 9.19782Z" fill="#FFAC32"/>
<path d="M19.5932 25.5643C24.2281 25.5643 27.9854 21.807 27.9854 17.1722C27.9854 12.5373 24.2281 8.78003 19.5932 8.78003C14.9583 8.78003 11.201 12.5373 11.201 17.1722C11.201 21.807 14.9583 25.5643 19.5932 25.5643Z" fill="#E9356E"/>
<path d="M22.9594 30.6441C22.9594 30.6441 22.1017 32.2484 19.7065 32.2484C17.3913 32.2484 16.4181 30.5642 16.4181 30.5642L16.5603 29.411L16.5847 29.2177L16.8069 27.4001L22.535 27.5601L22.6306 28.2511L22.6617 28.4778L22.9594 30.6441Z" fill="#FF8881"/>
<path d="M22.6283 28.2484C21.3307 29.3483 19.231 29.766 16.5603 29.4083L16.5847 29.215L16.8069 27.3975L22.535 27.5574L22.6283 28.2484Z" fill="#19274B"/>
<path d="M14.6539 22.6715C13.3719 24.4601 10.6145 23.2514 10.8011 20.8784C10.9722 18.7253 13.3763 19.0675 13.3763 19.0675L14.6539 22.6715Z" fill="#F55B5D"/>
<path d="M12.963 22.6493C12.963 22.8893 12.7697 23.0826 12.5298 23.0826C12.2898 23.0826 12.0965 22.8893 12.0965 22.6493C12.0965 22.4094 12.2898 22.2161 12.5298 22.2161C12.7697 22.2161 12.963 22.4116 12.963 22.6493Z" fill="#F5EFFF"/>
<path d="M13.4763 22.7159C13.3986 22.7159 13.3297 22.6626 13.3097 22.5849C13.0586 21.565 12.001 20.614 11.9921 20.6051C11.921 20.5429 11.9143 20.434 11.9788 20.3629C12.041 20.2918 12.1499 20.2852 12.221 20.3496C12.2676 20.3918 13.3697 21.3806 13.6452 22.5026C13.6674 22.5937 13.6119 22.6871 13.5208 22.7093C13.503 22.7137 13.4897 22.7159 13.4763 22.7159Z" fill="#D1373F"/>
<path d="M13.0342 21.7492C13.0164 21.7492 12.9986 21.747 12.9808 21.7404C12.512 21.5826 12.0654 21.6781 12.061 21.6804C11.9699 21.7004 11.8766 21.6426 11.8566 21.5515C11.8366 21.4604 11.8943 21.3693 11.9854 21.3471C12.0077 21.3426 12.5276 21.2293 13.0897 21.4182C13.1786 21.4471 13.2275 21.5448 13.1986 21.6337C13.1719 21.7026 13.1053 21.7492 13.0342 21.7492Z" fill="#D1373F"/>
<path d="M24.1415 22.6715C25.4235 24.4601 28.1809 23.2514 27.9943 20.8784C27.8232 18.7253 25.4191 19.0675 25.4191 19.0675L24.1415 22.6715Z" fill="#F55B5D"/>
<path d="M26.7011 22.6493C26.7011 22.8893 26.5078 23.0826 26.2679 23.0826C26.0279 23.0826 25.8346 22.8893 25.8346 22.6493C25.8346 22.4094 26.0279 22.2161 26.2679 22.2161C26.5056 22.2161 26.7011 22.4116 26.7011 22.6493Z" fill="#F5EFFF"/>
<path d="M25.3191 22.716C25.3058 22.716 25.2924 22.7137 25.2791 22.7115C25.188 22.6893 25.1302 22.596 25.1547 22.5049C25.4302 21.3828 26.5323 20.3919 26.5789 20.3519C26.65 20.2896 26.7567 20.2963 26.8211 20.3652C26.8833 20.4363 26.8767 20.5429 26.8078 20.6074C26.7967 20.6163 25.739 21.5672 25.4902 22.5871C25.4657 22.6649 25.3969 22.716 25.3191 22.716Z" fill="#D1373F"/>
<path d="M25.7613 21.7493C25.6902 21.7493 25.6235 21.7048 25.5991 21.6315C25.568 21.5426 25.6169 21.4449 25.708 21.416C26.2701 21.2271 26.79 21.3404 26.8123 21.3449C26.9033 21.3649 26.9633 21.456 26.9411 21.5493C26.9211 21.6404 26.83 21.6982 26.7367 21.6782C26.7323 21.6759 26.2834 21.5826 25.8168 21.7382C25.7968 21.7448 25.7791 21.7493 25.7613 21.7493Z" fill="#D1373F"/>
<path d="M12.8675 16.4501C12.8675 16.4501 12.2409 20.3296 13.8629 24.1246C15.3316 27.5641 17.2869 28.6351 19.3688 28.6684C21.7352 28.7062 26.69 27.3375 25.9057 16.1102C25.3769 8.52458 13.4941 8.79343 12.8675 16.4501Z" fill="#FF8881"/>
<path d="M24.1415 13.9394C24.1415 13.9394 25.248 16.9345 25.8368 17.7033L26.4834 15.7169C26.4834 15.7169 26.0145 9.98218 19.371 9.98218C12.5009 9.98218 12.7364 15.7169 12.7364 15.7169L13.3252 18.4165C13.3252 18.4165 15.0538 15.8391 15.1849 14.1305C15.1849 14.1305 17.4824 16.6768 19.6088 16.3724C19.6088 16.3724 18.8289 15.537 18.62 14.8904C18.62 14.8904 22.335 16.8501 24.8214 16.1435C24.8214 16.1435 24.1903 15.2326 24.1415 13.9394Z" fill="#E9356E"/>
<path d="M12.7364 15.7146C12.7364 15.7146 11.9321 17.5543 12.3875 19.2052C12.843 20.8561 14.7472 22.7803 13.3985 24.7178C12.052 26.6553 13.5185 29.4482 15.5493 28.935C15.5493 28.935 13.4252 28.7194 13.534 26.5109C13.6407 24.3023 15.8982 23.8646 14.1895 20.7583C12.4809 17.6521 14.0184 15.2302 14.0184 15.2302L12.7364 15.7146Z" fill="#E9356E"/>
<path d="M26.4833 15.7146C26.4833 15.7146 27.2877 17.5543 26.8322 19.2052C26.3767 20.8561 24.4725 22.7803 25.8212 24.7178C27.1677 26.6553 25.7012 29.4482 23.6704 28.935C23.6704 28.935 25.7946 28.7194 25.6857 26.5109C25.579 24.3023 23.3216 23.8646 25.0302 20.7583C26.7389 17.6521 25.2013 15.2302 25.2013 15.2302L26.4833 15.7146Z" fill="#E9356E"/>
<path d="M15.0783 18.4164C15.0783 18.4164 15.9849 17.1544 17.5469 16.9922C17.8002 16.9655 18.0246 17.1611 18.0401 17.4144V17.4188C18.0557 17.6765 17.8513 17.8943 17.5935 17.8987C17.0069 17.9054 15.976 17.9898 15.0783 18.4164Z" fill="#E9356E"/>
<path d="M23.8415 18.4164C23.8415 18.4164 22.9349 17.1544 21.3729 16.9922C21.1196 16.9655 20.8952 17.1611 20.8797 17.4144V17.4188C20.8641 17.6765 21.0685 17.8943 21.3263 17.8987C21.9129 17.9054 22.9416 17.9898 23.8415 18.4164Z" fill="#E9356E"/>
<path d="M19.6643 26.6553C19.1777 26.6553 18.7911 26.4842 18.7666 26.4731C18.6955 26.4398 18.6622 26.3554 18.6955 26.2843C18.7289 26.2132 18.8133 26.1798 18.8844 26.2132C18.8933 26.2176 19.7732 26.602 20.4775 26.1398C20.5442 26.0954 20.6308 26.1154 20.6753 26.1798C20.7175 26.2465 20.6997 26.3332 20.6353 26.3776C20.3109 26.5887 19.9665 26.6553 19.6643 26.6553Z" fill="#F55B5D"/>
<path d="M20.1687 23.0246C20.1642 23.0246 20.162 23.0246 20.1576 23.0246L19.1155 22.9401C19.0377 22.9335 18.9777 22.8646 18.9844 22.7868C18.9911 22.7091 19.0599 22.6513 19.1377 22.6557L20.0087 22.7268L19.7376 20.0783C19.7287 20.0005 19.7865 19.9294 19.8643 19.9228C19.942 19.9139 20.0131 19.9717 20.0198 20.0494L20.3087 22.869C20.3131 22.9113 20.2975 22.9535 20.2687 22.9824C20.242 23.009 20.2064 23.0246 20.1687 23.0246Z" fill="#F55B5D"/>
<path d="M17.4291 24.1601C18.7111 24.3601 20.0154 24.4467 21.7618 24.1001C21.7618 24.1001 21.6107 25.9665 19.5377 25.9732C17.7735 25.9798 17.4291 24.1601 17.4291 24.1601Z" fill="#F5EFFF"/>
<path d="M17.3246 20.0629C17.3246 20.5562 17.1002 20.9583 16.8225 20.9583C16.5447 20.9583 16.3203 20.5584 16.3203 20.0629C16.3203 19.5696 16.5447 19.1675 16.8225 19.1675C17.1002 19.1697 17.3246 19.5696 17.3246 20.0629Z" fill="#19274B"/>
<path d="M22.6595 20.0629C22.6595 20.5562 22.435 20.9583 22.1573 20.9583C21.8796 20.9583 21.6552 20.5584 21.6552 20.0629C21.6552 19.5696 21.8796 19.1675 22.1573 19.1675C22.435 19.1697 22.6595 19.5696 22.6595 20.0629Z" fill="#19274B"/>
<path d="M15.4916 21.8982C15.4916 21.9826 15.4227 22.0515 15.3382 22.0515C15.2538 22.0515 15.1849 21.9826 15.1849 21.8982C15.1849 21.8138 15.2538 21.7449 15.3382 21.7449C15.4227 21.7449 15.4916 21.8138 15.4916 21.8982Z" fill="#F55B5D"/>
<path d="M16.2425 22.2693C16.2425 22.3537 16.1737 22.4226 16.0892 22.4226C16.0048 22.4226 15.9359 22.3537 15.9359 22.2693C15.9359 22.1848 16.0048 22.116 16.0892 22.116C16.1737 22.116 16.2425 22.1848 16.2425 22.2693Z" fill="#F55B5D"/>
<path d="M15.4916 22.8047C15.4916 22.8892 15.4227 22.958 15.3382 22.958C15.2538 22.958 15.1849 22.8892 15.1849 22.8047C15.1849 22.7203 15.2538 22.6514 15.3382 22.6514C15.4227 22.6492 15.4916 22.7203 15.4916 22.8047Z" fill="#F55B5D"/>
<path d="M16.6736 22.958C16.6736 23.0424 16.6047 23.1113 16.5203 23.1113C16.4358 23.1113 16.3669 23.0424 16.3669 22.958C16.3669 22.8736 16.4358 22.8047 16.5203 22.8047C16.6047 22.8047 16.6736 22.8736 16.6736 22.958Z" fill="#F55B5D"/>
<path d="M17.4601 22.8047C17.4601 22.8892 17.3912 22.958 17.3068 22.958C17.2224 22.958 17.1535 22.8892 17.1535 22.8047C17.1535 22.7203 17.2224 22.6514 17.3068 22.6514C17.3912 22.6492 17.4601 22.7203 17.4601 22.8047Z" fill="#F55B5D"/>
<path d="M17.1024 22.0515C17.1024 22.1359 17.0335 22.2048 16.9491 22.2048C16.8647 22.2048 16.7958 22.1359 16.7958 22.0515C16.7958 21.9671 16.8647 21.8982 16.9491 21.8982C17.0335 21.8982 17.1024 21.9671 17.1024 22.0515Z" fill="#F55B5D"/>
<path d="M23.7904 21.8982C23.7904 21.9826 23.8593 22.0515 23.9437 22.0515C24.0282 22.0515 24.097 21.9826 24.097 21.8982C24.097 21.8138 24.0282 21.7449 23.9437 21.7449C23.8593 21.7449 23.7904 21.8138 23.7904 21.8982Z" fill="#F55B5D"/>
<path d="M23.1927 22.4226C23.2773 22.4226 23.346 22.3539 23.346 22.2693C23.346 22.1846 23.2773 22.116 23.1927 22.116C23.108 22.116 23.0394 22.1846 23.0394 22.2693C23.0394 22.3539 23.108 22.4226 23.1927 22.4226Z" fill="#F55B5D"/>
<path d="M23.7904 22.8047C23.7904 22.8892 23.8593 22.958 23.9437 22.958C24.0282 22.958 24.097 22.8892 24.097 22.8047C24.097 22.7203 24.0282 22.6514 23.9437 22.6514C23.8593 22.6492 23.7904 22.7203 23.7904 22.8047Z" fill="#F55B5D"/>
<path d="M22.6105 22.958C22.6105 23.0424 22.6794 23.1113 22.7638 23.1113C22.8483 23.1113 22.9172 23.0424 22.9172 22.958C22.9172 22.8736 22.8483 22.8047 22.7638 22.8047C22.6794 22.8047 22.6105 22.8736 22.6105 22.958Z" fill="#F55B5D"/>
<path d="M21.8218 22.8047C21.8218 22.8892 21.8907 22.958 21.9751 22.958C22.0595 22.958 22.1284 22.8892 22.1284 22.8047C22.1284 22.7203 22.0595 22.6514 21.9751 22.6514C21.8907 22.6492 21.8218 22.7203 21.8218 22.8047Z" fill="#F55B5D"/>
<path d="M22.1795 22.0515C22.1795 22.1359 22.2484 22.2048 22.3328 22.2048C22.4172 22.2048 22.4861 22.1359 22.4861 22.0515C22.4861 21.9671 22.4172 21.8982 22.3328 21.8982C22.2484 21.8982 22.1795 21.9671 22.1795 22.0515Z" fill="#F55B5D"/>
<path d="M30.9678 34.6573C26.117 33.2163 22.6918 30.6684 19.5343 29.5208C16.3769 30.6684 12.9517 33.2163 8.10086 34.6573C0.403722 36.9424 -1.51929 26.6617 3.9743 23.0759C8.80987 19.921 8.23348 19.3931 9.49848 13.9837C9.5801 13.6317 9.66936 13.2619 9.77138 12.8666C9.88104 12.433 10.0009 11.9739 10.1361 11.4843C10.2151 11.1986 10.2993 10.9232 10.386 10.6554C11.7071 6.59512 15.4919 4.03196 19.5369 4.17223C23.5818 4.03196 27.3667 6.59512 28.6878 10.6554C28.7745 10.9206 28.8561 11.1986 28.9377 11.4843C29.0729 11.9739 29.1953 12.433 29.3024 12.8666C29.4019 13.2619 29.4911 13.6342 29.5753 13.9837C30.8403 19.3956 30.2639 19.921 35.0995 23.0759C40.5905 26.6592 38.665 36.9399 30.9678 34.6573Z" fill="#5A184A"/>
<path d="M39.4122 40.0019H1.40601C1.40601 40.0019 1.91609 37.5841 2.64295 35.1561C3.36982 32.7281 4.87201 31.7105 6.81798 31.2132C7.36631 31.0729 8.37117 30.7796 9.53161 30.4353C10.1871 30.2389 10.8961 30.0247 11.5974 29.813C14.0458 29.0683 16.4356 28.3261 16.4356 28.3261L20.3887 28.0099L20.4117 28.0073L20.4346 28.0099L24.0001 28.2955C24.0001 28.2955 26.145 28.9382 28.4863 29.6319C30.6847 30.2797 33.0591 30.9734 34.0002 31.2157C35.9462 31.7156 37.4484 32.7307 38.1753 35.1587C38.9021 37.5841 39.4122 40.0019 39.4122 40.0019Z" fill="#E9356E"/>
<path d="M5.58095 34.8536C5.5376 34.8536 5.49679 34.8408 5.46108 34.8128L4.45367 34.0247C4.36951 33.9584 4.35421 33.836 4.42052 33.7493C4.48683 33.6651 4.60925 33.6498 4.69596 33.7161L5.70337 34.5042C5.78754 34.5705 5.80284 34.6929 5.73653 34.7796C5.69572 34.8281 5.63961 34.8536 5.58095 34.8536Z" fill="#C4205C"/>
<path d="M5.58095 39.1102C5.5376 39.1102 5.49679 39.0974 5.46108 39.0694L4.45367 38.2813C4.36951 38.215 4.35421 38.0926 4.42052 38.0059C4.48683 37.9217 4.60925 37.9064 4.69596 37.9727L5.70337 38.7608C5.78754 38.8271 5.80284 38.9495 5.73653 39.0362C5.69572 39.0847 5.63961 39.1102 5.58095 39.1102Z" fill="#C4205C"/>
<path d="M11.4622 33.2928C11.4265 33.2928 11.3908 33.2826 11.3602 33.2647C11.2684 33.2086 11.2403 33.0862 11.2964 32.9944L11.9672 31.9054C12.0233 31.8135 12.1457 31.7855 12.2375 31.8416C12.3294 31.8977 12.3574 32.0201 12.3013 32.112L11.6305 33.201C11.5923 33.2596 11.5285 33.2928 11.4622 33.2928Z" fill="#C4205C"/>
<path d="M8.2359 37.5342C8.20019 37.5342 8.16448 37.524 8.13388 37.5062C8.04207 37.4501 8.01401 37.3277 8.07012 37.2358L8.74088 36.1468C8.79699 36.055 8.91941 36.027 9.01122 36.0831C9.10304 36.1392 9.13109 36.2616 9.07498 36.3534L8.40422 37.4424C8.36597 37.5011 8.30221 37.5342 8.2359 37.5342Z" fill="#C4205C"/>
<path d="M9.67178 32.1935C9.68453 32.2267 9.68708 32.2624 9.67943 32.3006C9.65903 32.4078 9.55446 32.4741 9.4499 32.4537L8.19509 32.2012C8.08798 32.1808 8.02167 32.0762 8.04207 31.9716C8.06247 31.8645 8.16704 31.7982 8.27161 31.8186L9.52641 32.0711C9.59527 32.0839 9.64883 32.1323 9.67178 32.1935Z" fill="#C4205C"/>
<path d="M13.9923 36.973C13.9489 36.973 13.9081 36.9602 13.8724 36.9322L12.865 36.1441C12.7808 36.0778 12.7655 35.9554 12.8318 35.8687C12.8981 35.7845 13.0206 35.7692 13.1073 35.8355L14.1147 36.6236C14.1989 36.6899 14.2142 36.8123 14.1478 36.899C14.107 36.9475 14.0509 36.973 13.9923 36.973Z" fill="#C4205C"/>
<path d="M10.3885 39.0798C10.363 39.0645 10.34 39.0415 10.3247 39.0134C10.2712 38.9191 10.3018 38.7992 10.3961 38.7457L11.5056 38.108C11.5999 38.0545 11.7198 38.0851 11.7734 38.1795C11.8269 38.2738 11.7963 38.3937 11.7019 38.4473L10.5925 39.0849C10.5262 39.1206 10.4497 39.1155 10.3885 39.0798Z" fill="#C4205C"/>
<path d="M27.846 34.8536C27.8026 34.8536 27.7618 34.8408 27.7261 34.8128L26.7187 34.0247C26.6345 33.9584 26.6192 33.836 26.6855 33.7493C26.7518 33.6651 26.8743 33.6498 26.961 33.7161L27.9684 34.5042C28.0526 34.5705 28.0679 34.6929 28.0015 34.7796C27.9607 34.8281 27.9046 34.8536 27.846 34.8536Z" fill="#C4205C"/>
<path d="M27.846 39.1102C27.8026 39.1102 27.7618 39.0974 27.7261 39.0694L26.7187 38.2813C26.6345 38.215 26.6192 38.0926 26.6855 38.0059C26.7518 37.9217 26.8743 37.9064 26.961 37.9727L27.9684 38.7608C28.0526 38.8271 28.0679 38.9495 28.0015 39.0362C27.9607 39.0847 27.9046 39.1102 27.846 39.1102Z" fill="#C4205C"/>
<path d="M33.7298 33.2928C33.6941 33.2928 33.6584 33.2826 33.6278 33.2647C33.536 33.2086 33.5079 33.0862 33.564 32.9944L34.2348 31.9054C34.2909 31.8135 34.4133 31.7855 34.5051 31.8416C34.5969 31.8977 34.625 32.0201 34.5689 32.112L33.8981 33.201C33.8573 33.2596 33.7936 33.2928 33.7298 33.2928Z" fill="#C4205C"/>
<path d="M30.5035 37.5342C30.4678 37.5342 30.4321 37.524 30.4015 37.5062C30.3097 37.4501 30.2816 37.3277 30.3378 37.2358L31.0085 36.1468C31.0646 36.055 31.187 36.027 31.2789 36.0831C31.3707 36.1392 31.3987 36.2616 31.3426 36.3534L30.6719 37.4424C30.6336 37.5011 30.5698 37.5342 30.5035 37.5342Z" fill="#C4205C"/>
<path d="M37.3693 39.3348C37.3336 39.3348 37.2978 39.3246 37.2672 39.3067C37.1754 39.2506 37.1474 39.1282 37.2035 39.0364L37.8742 37.9474C37.9304 37.8555 38.0528 37.8275 38.1446 37.8836C38.2364 37.9397 38.2645 38.0621 38.2083 38.1539L37.5376 39.243C37.4993 39.3016 37.4356 39.3348 37.3693 39.3348Z" fill="#C4205C"/>
<path d="M31.9369 32.1935C31.9496 32.2267 31.9522 32.2624 31.9445 32.3006C31.9241 32.4078 31.8195 32.4741 31.715 32.4537L30.4602 32.2012C30.3531 32.1808 30.2867 32.0762 30.3071 31.9716C30.3275 31.8645 30.4321 31.7982 30.5367 31.8186L31.7915 32.0711C31.8603 32.0839 31.9139 32.1323 31.9369 32.1935Z" fill="#C4205C"/>
<path d="M36.2573 36.1646C36.2139 36.1646 36.1731 36.1519 36.1374 36.1238L35.13 35.3357C35.0458 35.2694 35.0305 35.147 35.0968 35.0603C35.1632 34.9761 35.2856 34.9608 35.3723 35.0271L36.3797 35.8152C36.4639 35.8815 36.4792 36.004 36.4129 36.0907C36.3746 36.1391 36.3159 36.1646 36.2573 36.1646Z" fill="#C4205C"/>
<path d="M32.6561 39.0798C32.6306 39.0645 32.6076 39.0415 32.5923 39.0134C32.5387 38.9191 32.5693 38.7992 32.6637 38.7457L33.7731 38.108C33.8675 38.0545 33.9874 38.0851 34.0409 38.1795C34.0945 38.2738 34.0639 38.3937 33.9695 38.4473L32.8601 39.0849C32.7938 39.1206 32.7147 39.1155 32.6561 39.0798Z" fill="#C4205C"/>
<path d="M20.3937 35.5933C20.358 35.5933 20.3223 35.5831 20.2917 35.5653C20.1999 35.5092 20.1718 35.3867 20.228 35.2949L20.8987 34.2059C20.9548 34.1141 21.0772 34.086 21.1691 34.1421C21.2609 34.1983 21.2889 34.3207 21.2328 34.4125L20.5621 35.5015C20.5238 35.5602 20.46 35.5933 20.3937 35.5933Z" fill="#C4205C"/>
<path d="M17.2847 39.0135C17.249 39.0135 17.2133 39.0033 17.1827 38.9854C17.0909 38.9293 17.0628 38.8069 17.1189 38.7151L17.7897 37.6261C17.8458 37.5343 17.9682 37.5062 18.06 37.5623C18.1519 37.6184 18.1799 37.7408 18.1238 37.8326L17.4531 38.9217C17.4148 38.9803 17.351 39.0135 17.2847 39.0135Z" fill="#C4205C"/>
<path d="M17.5296 34.9123C17.5423 34.9454 17.5449 34.9811 17.5372 35.0194C17.5168 35.1265 17.4123 35.1928 17.3077 35.1724L16.0529 34.9199C15.9458 34.8995 15.8795 34.795 15.8999 34.6904C15.9203 34.5833 16.0248 34.517 16.1294 34.5374L17.3842 34.7899C17.4531 34.8026 17.5066 34.8511 17.5296 34.9123Z" fill="#C4205C"/>
<path d="M24.8824 36.0345C24.8391 36.0345 24.7982 36.0217 24.7625 35.9937L23.7551 35.2056C23.671 35.1393 23.6557 35.0169 23.722 34.9302C23.7883 34.846 23.9107 34.8307 23.9974 34.897L25.0048 35.6851C25.089 35.7514 25.1043 35.8738 25.038 35.9605C24.9972 36.009 24.9411 36.0345 24.8824 36.0345Z" fill="#C4205C"/>
<path d="M21.0568 39.1257C21.0313 39.1104 21.0084 39.0874 20.9931 39.0593C20.9395 38.965 20.9701 38.8451 21.0645 38.7915L22.1739 38.1539C22.2683 38.1004 22.3881 38.131 22.4417 38.2254C22.4953 38.3197 22.4646 38.4396 22.3703 38.4932L21.2609 39.1308C21.1945 39.169 21.118 39.1639 21.0568 39.1257Z" fill="#C4205C"/>
<path d="M20.4323 28.0007V28.0059L20.4117 28.0033L20.4323 28.0007Z" fill="#5D46C2"/>
<path d="M20.412 28.0033L20.3887 28.0059V28.0007L20.412 28.0033Z" fill="#5D46C2"/>
<path d="M23.9363 29.2605C23.9363 29.2605 22.9519 31.1019 20.2025 31.1019C17.545 31.1019 16.4279 29.1687 16.4279 29.1687L16.5911 27.845L16.6192 27.6231L16.8742 25.5369L23.4492 25.7205L23.5589 26.5137L23.5946 26.7738L23.9363 29.2605Z" fill="#FF8881"/>
<path d="M26.5147 32.1095C24.8799 34.2161 21.3298 33.0812 20.177 31.5407C19.0242 33.0812 15.4766 34.2136 13.8392 32.1095C12.263 30.0819 16.5324 28.3145 16.5324 28.3145C16.9686 30.2783 19.3634 30.9082 20.177 31.0612C20.9905 30.9082 23.3701 30.2808 23.8062 28.3145C23.8036 28.3145 28.0883 30.0793 26.5147 32.1095Z" fill="#F5EFFF"/>
<path d="M23.5537 26.5112C22.0643 27.7737 19.6542 28.2532 16.5886 27.8425L16.6166 27.6207L16.8717 25.5344L23.4466 25.7181L23.5537 26.5112Z" fill="#19274B"/>
<path d="M14.4029 20.1098C12.9313 22.1629 9.76627 20.7755 9.98051 18.0516C10.1769 15.5803 12.9364 15.973 12.9364 15.973L14.4029 20.1098Z" fill="#F55B5D"/>
<path d="M12.8753 21.176C12.8753 21.681 12.4672 22.089 11.9622 22.089C11.4573 22.089 11.0492 21.681 11.0492 21.176C11.0492 20.671 11.4573 20.2629 11.9622 20.2629C12.4672 20.2629 12.8753 20.671 12.8753 21.176Z" fill="#FFAC32"/>
<path d="M13.0487 20.1607C12.9594 20.1607 12.8803 20.0995 12.8574 20.0103C12.5717 18.8422 11.3552 17.7481 11.345 17.7379C11.2634 17.6664 11.2557 17.5415 11.3297 17.4599C11.4011 17.3783 11.5261 17.3706 11.6077 17.4446C11.6612 17.493 12.9262 18.628 13.2425 19.9159C13.268 20.0205 13.2042 20.1276 13.0997 20.1531C13.0793 20.1582 13.064 20.1607 13.0487 20.1607Z" fill="#D1373F"/>
<path d="M12.5437 19.0513C12.5233 19.0513 12.5029 19.0488 12.4825 19.0411C11.9444 18.8601 11.4317 18.9697 11.4266 18.9723C11.3221 18.9952 11.2175 18.9289 11.192 18.8244C11.169 18.7198 11.2353 18.6152 11.3399 18.5897C11.3654 18.5846 11.9622 18.4545 12.6075 18.6713C12.7095 18.7045 12.7656 18.8167 12.7324 18.9187C12.7018 18.9978 12.6253 19.0513 12.5437 19.0513Z" fill="#D1373F"/>
<path d="M25.2906 20.1098C26.7622 22.1629 29.9273 20.7755 29.7131 18.0516C29.5167 15.5803 26.7571 15.973 26.7571 15.973L25.2906 20.1098Z" fill="#F55B5D"/>
<path d="M28.7261 21.176C28.7261 21.681 28.3181 22.089 27.8131 22.089C27.3081 22.089 26.9 21.681 26.9 21.176C26.9 20.671 27.3081 20.2629 27.8131 20.2629C28.3181 20.2629 28.7261 20.671 28.7261 21.176Z" fill="#FFAC32"/>
<path d="M26.6449 20.1609C26.6296 20.1609 26.6143 20.1584 26.599 20.1558C26.4944 20.1303 26.4281 20.0232 26.4562 19.9186C26.7724 18.6307 28.0374 17.4932 28.091 17.4473C28.1726 17.3759 28.295 17.3835 28.369 17.4626C28.4404 17.5442 28.4327 17.6666 28.3537 17.7406C28.3409 17.7508 27.1269 18.8424 26.8413 20.013C26.8132 20.1023 26.7316 20.1609 26.6449 20.1609Z" fill="#D1373F"/>
<path d="M27.1499 19.0515C27.0683 19.0515 26.9918 19.0004 26.9638 18.9163C26.9306 18.8143 26.9842 18.702 27.0887 18.6689C27.734 18.4521 28.3308 18.5822 28.3563 18.5873C28.4608 18.6102 28.5297 18.7148 28.5042 18.8219C28.4812 18.9265 28.3767 18.9928 28.2696 18.9698C28.2645 18.9698 27.7518 18.8602 27.2137 19.0387C27.1933 19.0464 27.1703 19.0515 27.1499 19.0515Z" fill="#D1373F"/>
<path d="M12.3524 12.9686C12.3524 12.9686 11.6332 17.4216 13.495 21.7777C15.1808 25.7258 17.4252 26.9551 19.8149 26.9933C22.5311 27.0367 28.2185 25.4656 27.3182 12.5784C26.7086 3.8713 13.0716 4.1799 12.3524 12.9686Z" fill="#FF8881"/>
<path d="M11.9622 14.9375C11.9622 14.9375 12.105 17.697 13.2502 17.5924C14.3953 17.4879 13.8393 11.2751 13.8393 11.2751C13.8393 11.2751 14.8595 12.7798 16.7213 12.6166C18.5831 12.4534 16.8947 10.033 16.8947 10.033C16.8947 10.033 18.6111 12.4202 20.1847 12.3233C21.7558 12.2264 20.1847 9.28065 20.1847 9.28065C20.1847 9.28065 22.2378 12.6166 23.7145 12.5197C25.1912 12.4228 23.9415 9.64282 23.9415 9.64282C23.9415 9.64282 25.1172 12.7186 26.2394 12.9456C26.2394 12.9456 25.9563 17.4751 27.1576 17.2838C28.3563 17.0926 27.9125 12.03 27.4203 10.4921C26.928 8.9542 24.2832 5.09543 19.1952 5.58511C14.0995 6.07479 12.054 8.88789 11.9622 14.9375Z" fill="#5A184A"/>
<path d="M14.8875 15.2257C14.8875 15.2257 15.9281 13.7771 17.721 13.5909C18.0118 13.5603 18.2694 13.7848 18.2872 14.0755V14.0806C18.3051 14.3765 18.0704 14.6264 17.7746 14.6315C17.1013 14.6392 15.9204 14.7361 14.8875 15.2257Z" fill="#5A184A"/>
<path d="M24.9463 15.2257C24.9463 15.2257 23.9057 13.7771 22.1128 13.5909C21.8221 13.5603 21.5645 13.7848 21.5466 14.0755V14.0806C21.5288 14.3765 21.7634 14.6264 22.0592 14.6315C22.7326 14.6392 23.9159 14.7361 24.9463 15.2257Z" fill="#5A184A"/>
<path d="M20.1515 24.6827C19.593 24.6827 19.1492 24.4863 19.1212 24.4735C19.0396 24.4353 19.0013 24.3384 19.0396 24.2568C19.0778 24.1751 19.1747 24.1369 19.2564 24.1751C19.2717 24.1802 20.2765 24.6215 21.085 24.091C21.1615 24.0425 21.261 24.0629 21.312 24.1369C21.3604 24.2134 21.34 24.3129 21.2661 24.3639C20.8937 24.6062 20.501 24.6827 20.1515 24.6827Z" fill="#F55B5D"/>
<path d="M20.7305 20.5153C20.7254 20.5153 20.7228 20.5153 20.7177 20.5153L19.5216 20.4184C19.4323 20.4107 19.3635 20.3316 19.3711 20.2424C19.3788 20.1531 19.4578 20.0868 19.5471 20.0919L20.5469 20.1735L20.2357 17.1334C20.2255 17.0442 20.2918 16.9625 20.3811 16.9549C20.4704 16.9447 20.552 17.011 20.5596 17.1003L20.8912 20.3367C20.8963 20.3852 20.8784 20.4337 20.8453 20.4668C20.8172 20.4974 20.7739 20.5153 20.7305 20.5153Z" fill="#F55B5D"/>
<path d="M17.5859 21.8184C19.0575 22.0479 20.5546 22.1474 22.5592 21.7495C22.5592 21.7495 22.3857 23.8919 20.0062 23.8995C17.9837 23.9072 17.5859 21.8184 17.5859 21.8184Z" fill="#F5EFFF"/>
<path d="M17.4685 17.1155C17.4685 17.6817 17.2109 18.1433 16.8921 18.1433C16.5733 18.1433 16.3157 17.6842 16.3157 17.1155C16.3157 16.5493 16.5733 16.0876 16.8921 16.0876C17.2109 16.0902 17.4685 16.5493 17.4685 17.1155Z" fill="#19274B"/>
<path d="M23.0157 18.1433C23.3341 18.1433 23.5921 17.6831 23.5921 17.1155C23.5921 16.5478 23.3341 16.0876 23.0157 16.0876C22.6974 16.0876 22.4393 16.5478 22.4393 17.1155C22.4393 17.6831 22.6974 18.1433 23.0157 18.1433Z" fill="#19274B"/>
<path d="M15.3645 19.2221C15.3645 19.319 15.2854 19.3981 15.1885 19.3981C15.0916 19.3981 15.0125 19.319 15.0125 19.2221C15.0125 19.1252 15.0916 19.0461 15.1885 19.0461C15.2854 19.0461 15.3645 19.1252 15.3645 19.2221Z" fill="#F55B5D"/>
<path d="M16.048 19.8239C16.1452 19.8239 16.224 19.7451 16.224 19.6479C16.224 19.5507 16.1452 19.4719 16.048 19.4719C15.9508 19.4719 15.872 19.5507 15.872 19.6479C15.872 19.7451 15.9508 19.8239 16.048 19.8239Z" fill="#F55B5D"/>
<path d="M15.3645 20.2627C15.3645 20.3596 15.2855 20.4387 15.1886 20.4387C15.0916 20.4387 15.0126 20.3596 15.0126 20.2627C15.0126 20.1658 15.0916 20.0867 15.1886 20.0867C15.2855 20.0842 15.3645 20.1658 15.3645 20.2627Z" fill="#F55B5D"/>
<path d="M16.7188 20.4387C16.7188 20.5356 16.6398 20.6147 16.5429 20.6147C16.4459 20.6147 16.3669 20.5356 16.3669 20.4387C16.3669 20.3418 16.4459 20.2627 16.5429 20.2627C16.6398 20.2627 16.7188 20.3418 16.7188 20.4387Z" fill="#F55B5D"/>
<path d="M17.6216 20.2627C17.6216 20.3596 17.5425 20.4387 17.4456 20.4387C17.3487 20.4387 17.2697 20.3596 17.2697 20.2627C17.2697 20.1658 17.3487 20.0867 17.4456 20.0867C17.5425 20.0842 17.6216 20.1658 17.6216 20.2627Z" fill="#F55B5D"/>
<path d="M17.211 19.3981C17.211 19.4951 17.1319 19.5741 17.035 19.5741C16.9381 19.5741 16.859 19.4951 16.859 19.3981C16.859 19.3012 16.9381 19.2222 17.035 19.2222C17.1319 19.2222 17.211 19.3012 17.211 19.3981Z" fill="#F55B5D"/>
<path d="M24.8876 19.2221C24.8876 19.319 24.9667 19.3981 25.0636 19.3981C25.1605 19.3981 25.2396 19.319 25.2396 19.2221C25.2396 19.1252 25.1605 19.0461 25.0636 19.0461C24.9667 19.0461 24.8876 19.1252 24.8876 19.2221Z" fill="#F55B5D"/>
<path d="M24.2041 19.8239C24.3013 19.8239 24.3801 19.7451 24.3801 19.6479C24.3801 19.5507 24.3013 19.4719 24.2041 19.4719C24.1069 19.4719 24.0281 19.5507 24.0281 19.6479C24.0281 19.7451 24.1069 19.8239 24.2041 19.8239Z" fill="#F55B5D"/>
<path d="M24.8876 20.2627C24.8876 20.3596 24.9667 20.4387 25.0636 20.4387C25.1605 20.4387 25.2396 20.3596 25.2396 20.2627C25.2396 20.1658 25.1605 20.0867 25.0636 20.0867C24.9667 20.0842 24.8876 20.1658 24.8876 20.2627Z" fill="#F55B5D"/>
<path d="M23.5334 20.4387C23.5334 20.5356 23.6125 20.6147 23.7094 20.6147C23.8063 20.6147 23.8854 20.5356 23.8854 20.4387C23.8854 20.3418 23.8063 20.2627 23.7094 20.2627C23.6125 20.2627 23.5334 20.3418 23.5334 20.4387Z" fill="#F55B5D"/>
<path d="M22.6306 20.2627C22.6306 20.3596 22.7096 20.4387 22.8065 20.4387C22.9034 20.4387 22.9825 20.3596 22.9825 20.2627C22.9825 20.1658 22.9034 20.0867 22.8065 20.0867C22.7096 20.0842 22.6306 20.1658 22.6306 20.2627Z" fill="#F55B5D"/>
<path d="M23.0412 19.3981C23.0412 19.4951 23.1203 19.5741 23.2172 19.5741C23.3141 19.5741 23.3932 19.4951 23.3932 19.3981C23.3932 19.3012 23.3141 19.2222 23.2172 19.2222C23.1203 19.2222 23.0412 19.3012 23.0412 19.3981Z" fill="#F55B5D"/>
<path d="M16.6625 20.4795C15.0736 20.4795 13.778 19.1864 13.778 17.595C13.778 16.0061 15.0711 14.7104 16.6625 14.7104C18.2514 14.7104 19.547 16.0035 19.547 17.595C19.5445 19.1864 18.2514 20.4795 16.6625 20.4795ZM16.6625 14.9731C15.2164 14.9731 14.0407 16.1489 14.0407 17.595C14.0407 19.041 15.2164 20.2168 16.6625 20.2168C18.1086 20.2168 19.2844 19.041 19.2844 17.595C19.2844 16.1489 18.1061 14.9731 16.6625 14.9731Z" fill="#F5EFFF"/>
<path d="M23.6047 20.4795C22.0158 20.4795 20.7202 19.1864 20.7202 17.595C20.7202 16.0061 22.0133 14.7104 23.6047 14.7104C25.1936 14.7104 26.4892 16.0035 26.4892 17.595C26.4867 19.1864 25.1936 20.4795 23.6047 20.4795ZM23.6047 14.9731C22.1586 14.9731 20.9829 16.1489 20.9829 17.595C20.9829 19.041 22.1586 20.2168 23.6047 20.2168C25.0508 20.2168 26.2265 19.041 26.2265 17.595C26.2265 16.1489 25.0508 14.9731 23.6047 14.9731Z" fill="#F5EFFF"/>
<path d="M26.1934 16.7915C26.1628 16.7915 26.1296 16.7813 26.1041 16.7584C26.0506 16.7099 26.048 16.6257 26.0965 16.5747C26.1322 16.5365 26.984 15.6158 28.2618 15.8275C28.3332 15.8402 28.3816 15.9065 28.3689 15.9779C28.3561 16.0494 28.2898 16.0978 28.2184 16.0851C27.0809 15.8989 26.298 16.7431 26.2903 16.7507C26.2648 16.7762 26.2291 16.7915 26.1934 16.7915Z" fill="#F5EFFF"/>
<path d="M14.0918 16.738C14.0586 16.738 14.0229 16.7252 13.9974 16.6972C13.9821 16.6819 12.9517 15.6515 11.6816 16.0774C11.6128 16.1004 11.5388 16.0647 11.5159 15.9958C11.4929 15.9269 11.5286 15.853 11.5975 15.83C13.0308 15.3505 14.1377 16.4676 14.1861 16.5161C14.2371 16.5671 14.2346 16.6513 14.1836 16.7023C14.1581 16.7252 14.1249 16.738 14.0918 16.738Z" fill="#F5EFFF"/>
<path d="M19.4145 17.3322C19.412 17.3322 19.4094 17.3322 19.4069 17.3322C19.3354 17.3271 19.2793 17.2659 19.2844 17.1919C19.2997 16.9624 19.4961 16.5288 20.1337 16.5288C20.7713 16.5288 20.9677 16.9624 20.983 17.1919C20.9881 17.2633 20.932 17.3271 20.8606 17.3322C20.7892 17.3373 20.7254 17.2812 20.7203 17.2098C20.7178 17.169 20.6693 16.7915 20.1312 16.7915C19.5777 16.7915 19.5446 17.1919 19.5446 17.2098C19.5395 17.2786 19.4834 17.3322 19.4145 17.3322Z" fill="#F5EFFF"/>
</g>
</svg>
