<svg width="644" height="350" viewBox="0 0 644 350" fill="none" xmlns="http://www.w3.org/2000/svg">
  <g clip-path="url(#clip0)">
    <path
      d="M324.067 350C498.693 350 640.255 340.634 640.255 329.079C640.255 317.525 498.693 308.159 324.067 308.159C149.441 308.159 7.87891 317.525 7.87891 329.079C7.87891 340.634 149.441 350 324.067 350Z"
      fill="#F2F2F2" />
    <path
      d="M311.947 100.052C260.431 100.052 223.443 133.085 223.443 210.161C223.443 297.514 260.431 320.637 311.947 320.637C363.462 320.637 402.653 295.312 402.653 210.161C402.653 119.137 363.462 100.052 311.947 100.052ZM312.285 291.642C276.604 291.642 257.963 270.72 257.963 210.217C257.963 156.833 277.367 128.68 313.048 128.68C348.729 128.68 368.133 147.172 368.133 210.217C368.133 269.195 347.966 291.642 312.285 291.642Z"
      fill="#2F2E41" />
    <path
      d="M192.596 259.71H171.297V197.023C171.297 193.694 169.973 190.5 167.618 188.146C165.262 185.792 162.067 184.469 158.736 184.469H153.745C152.095 184.469 150.462 184.794 148.938 185.425C147.414 186.056 146.029 186.98 144.863 188.146C143.696 189.312 142.771 190.696 142.14 192.219C141.508 193.742 141.184 195.375 141.184 197.023V259.71H81.1047C79.8688 259.71 78.6538 259.391 77.5777 258.783C76.5016 258.176 75.6009 257.301 74.9629 256.243C74.325 255.185 73.9714 253.98 73.9367 252.745C73.9019 251.51 74.187 250.287 74.7644 249.195L138.351 128.912C139.144 127.413 139.624 125.768 139.764 124.078C139.903 122.387 139.698 120.686 139.161 119.077C138.625 117.468 137.767 115.985 136.641 114.716C135.515 113.447 134.143 112.42 132.609 111.695L128.855 109.924C125.94 108.548 122.608 108.345 119.548 109.356C116.487 110.368 113.933 112.516 112.414 115.357L34.8611 260.354C33.5405 262.823 32.8496 265.579 32.8496 268.379C32.8496 270.615 33.2902 272.828 34.1461 274.894C35.0021 276.959 36.2567 278.836 37.8384 280.416C39.42 281.997 41.2977 283.251 43.3642 284.107C45.4307 284.962 47.6455 285.402 49.8823 285.402H141.184V325.042C141.184 327.018 141.573 328.975 142.33 330.801C143.086 332.626 144.195 334.285 145.593 335.683C146.992 337.08 148.651 338.188 150.478 338.945C152.305 339.701 154.263 340.09 156.24 340.09H156.24C158.217 340.09 160.175 339.701 162.002 338.945C163.829 338.188 165.489 337.08 166.887 335.683C168.285 334.285 169.394 332.626 170.151 330.801C170.907 328.975 171.297 327.018 171.297 325.042V285.402H192.596C196.005 285.402 199.274 284.049 201.685 281.64C204.095 279.231 205.449 275.963 205.449 272.556C205.449 269.149 204.095 265.882 201.685 263.473C199.274 261.064 196.005 259.71 192.596 259.71Z"
      fill="#2F49D1" />
    <path
      d="M587.006 259.71H565.707V197.023C565.707 193.694 564.383 190.5 562.028 188.146C559.672 185.792 556.477 184.469 553.146 184.469H548.155C546.505 184.469 544.872 184.794 543.348 185.425C541.824 186.056 540.439 186.98 539.273 188.146C538.106 189.312 537.181 190.696 536.55 192.219C535.919 193.742 535.594 195.375 535.594 197.023V259.71H475.515C474.279 259.71 473.064 259.391 471.988 258.783C470.912 258.176 470.011 257.301 469.373 256.243C468.735 255.185 468.382 253.98 468.347 252.745C468.312 251.51 468.597 250.287 469.175 249.195L532.761 128.912C533.554 127.413 534.035 125.768 534.174 124.078C534.313 122.387 534.108 120.686 533.571 119.077C533.035 117.468 532.177 115.985 531.051 114.716C529.925 113.447 528.553 112.42 527.019 111.695L523.265 109.924C520.35 108.548 517.018 108.345 513.958 109.356C510.897 110.368 508.343 112.516 506.824 115.357L429.271 260.354C427.951 262.823 427.26 265.579 427.26 268.379C427.26 272.894 429.054 277.224 432.249 280.416C435.443 283.609 439.775 285.402 444.292 285.402H535.594V325.042C535.594 329.033 537.18 332.86 540.004 335.683C542.827 338.505 546.657 340.09 550.65 340.09C554.643 340.09 558.473 338.505 561.297 335.683C564.12 332.86 565.707 329.033 565.707 325.042V285.402H587.006C590.415 285.402 593.684 284.049 596.095 281.64C598.505 279.231 599.86 275.963 599.86 272.556C599.86 269.149 598.505 265.882 596.095 263.473C593.684 261.064 590.415 259.71 587.006 259.71Z"
      fill="#2F49D1" />
    <path
      d="M198.473 252.37H177.174V189.683C177.174 188.034 176.849 186.402 176.217 184.879C175.586 183.355 174.661 181.971 173.495 180.806C172.328 179.64 170.943 178.715 169.419 178.084C167.895 177.453 166.262 177.129 164.613 177.129H159.622C156.29 177.129 153.095 178.451 150.74 180.806C148.384 183.16 147.06 186.353 147.06 189.683V252.37H86.9817C85.7457 252.37 84.5308 252.051 83.4547 251.443C82.3786 250.836 81.4778 249.96 80.8399 248.902C80.2019 247.844 79.8484 246.64 79.8136 245.405C79.7789 244.17 80.064 242.947 80.6414 241.855L144.228 121.572C145.021 120.072 145.501 118.428 145.641 116.737C145.78 115.047 145.575 113.346 145.038 111.737C144.502 110.128 143.644 108.644 142.518 107.375C141.392 106.107 140.02 105.079 138.486 104.355L134.732 102.583C131.817 101.208 128.485 101.005 125.425 102.016C122.364 103.027 119.81 105.176 118.29 108.017L40.7381 253.014C39.4175 255.483 38.7266 258.239 38.7266 261.039V261.039C38.7266 265.554 40.5211 269.884 43.7153 273.076C46.9096 276.269 51.2419 278.062 55.7593 278.062H147.06V317.701C147.06 319.678 147.45 321.634 148.207 323.46C148.963 325.286 150.072 326.945 151.47 328.342C152.869 329.74 154.528 330.848 156.355 331.604C158.182 332.361 160.14 332.75 162.117 332.75H162.117C166.11 332.75 169.94 331.164 172.764 328.342C175.587 325.52 177.174 321.693 177.174 317.701V278.062H198.473C200.161 278.062 201.832 277.73 203.392 277.084C204.951 276.439 206.368 275.492 207.562 274.3C208.755 273.107 209.702 271.691 210.348 270.132C210.994 268.574 211.326 266.903 211.326 265.216V265.216C211.326 263.529 210.994 261.859 210.348 260.3C209.702 258.742 208.755 257.325 207.562 256.133C206.368 254.94 204.951 253.993 203.392 253.348C201.832 252.702 200.161 252.37 198.473 252.37V252.37Z"
      stroke="#161624" stroke-miterlimit="10" />
    <path
      d="M598.024 252.37H576.724V189.683C576.724 186.353 575.401 183.16 573.045 180.806C570.69 178.451 567.495 177.129 564.163 177.129H559.172C557.523 177.129 555.889 177.453 554.365 178.084C552.841 178.715 551.457 179.64 550.29 180.806C549.124 181.971 548.199 183.355 547.567 184.879C546.936 186.402 546.611 188.034 546.611 189.683V252.37H486.532C485.297 252.37 484.082 252.051 483.005 251.443C481.929 250.836 481.029 249.96 480.391 248.902C479.753 247.844 479.399 246.64 479.364 245.405C479.33 244.17 479.615 242.947 480.192 241.855L543.779 121.572C544.572 120.072 545.052 118.428 545.191 116.737C545.331 115.047 545.126 113.346 544.589 111.737C544.052 110.128 543.195 108.644 542.069 107.375C540.943 106.107 539.571 105.079 538.036 104.355L534.283 102.583C531.368 101.208 528.036 101.005 524.975 102.016C521.915 103.027 519.361 105.176 517.841 108.017L440.289 253.014C438.968 255.483 438.277 258.239 438.277 261.039C438.277 265.554 440.072 269.884 443.266 273.076C446.46 276.269 450.793 278.062 455.31 278.062H546.611V317.701C546.611 321.693 548.198 325.52 551.021 328.342C553.845 331.164 557.675 332.75 561.668 332.75V332.75C565.661 332.75 569.491 331.164 572.314 328.342C575.138 325.52 576.724 321.693 576.724 317.701V278.062H598.024C599.712 278.062 601.383 277.73 602.943 277.084C604.502 276.439 605.919 275.492 607.112 274.3C608.306 273.107 609.253 271.691 609.899 270.132C610.545 268.574 610.877 266.903 610.877 265.216V265.216C610.877 261.809 609.523 258.542 607.113 256.133C604.702 253.723 601.433 252.37 598.024 252.37V252.37Z"
      stroke="#161624" stroke-miterlimit="10" />
    <path
      d="M323.699 93.4453C272.183 93.4453 235.195 126.478 235.195 203.555C235.195 290.908 272.183 314.031 323.699 314.031C375.214 314.031 414.405 288.706 414.405 203.555C414.405 112.531 375.214 93.4453 323.699 93.4453ZM324.037 285.035C288.356 285.035 269.715 264.114 269.715 203.611C269.715 150.226 289.119 122.074 324.8 122.074C360.481 122.074 379.885 140.566 379.885 203.611C379.885 262.589 359.718 285.035 324.037 285.035V285.035Z"
      stroke="#161624" stroke-miterlimit="10" />
    <path
      d="M282.407 18.6622C286.678 18.6622 290.14 15.2019 290.14 10.9334C290.14 6.6649 286.678 3.20459 282.407 3.20459C278.136 3.20459 274.674 6.6649 274.674 10.9334C274.674 15.2019 278.136 18.6622 282.407 18.6622Z"
      fill="#2F2E41" />
    <path
      d="M301.267 56.1753C313.246 56.1753 322.957 43.6 322.957 28.0876C322.957 12.5753 313.246 0 301.267 0C289.287 0 279.576 12.5753 279.576 28.0876C279.576 43.6 289.287 56.1753 301.267 56.1753Z"
      fill="#2F2E41" />
    <path opacity="0.1"
      d="M301.267 47.6924C290.401 47.6924 281.401 37.346 279.822 23.8462C279.658 25.254 279.576 26.6702 279.576 28.0876C279.576 43.6 289.287 56.1752 301.267 56.1752C313.246 56.1752 322.957 43.6 322.957 28.0876C322.957 26.6702 322.875 25.254 322.711 23.8462C321.132 37.346 312.132 47.6924 301.267 47.6924Z"
      fill="black" />
    <path
      d="M345.404 110.343C344.938 112.256 342.929 113.788 340.705 114.859C336.028 117.11 330.26 117.781 324.665 118.007C323.238 118.093 321.806 118.067 320.382 117.928C317.625 117.661 315.037 116.472 313.039 114.554C312.897 114.461 312.78 114.333 312.7 114.183C312.62 114.033 312.58 113.865 312.582 113.695C312.585 113.525 312.63 113.358 312.715 113.21C312.8 113.063 312.92 112.939 313.066 112.85C316.044 109.58 321.015 107.575 326.023 106.131C329.819 105.036 336.441 102.2 340.582 102.583C344.593 102.954 345.992 107.928 345.404 110.343Z"
      fill="#161624" />
    <path opacity="0.1"
      d="M345.404 110.343C344.938 112.256 342.929 113.788 340.705 114.859C336.028 117.11 330.26 117.781 324.665 118.007C323.238 118.093 321.806 118.067 320.382 117.928C317.625 117.661 315.037 116.472 313.039 114.554C312.897 114.461 312.78 114.333 312.7 114.183C312.62 114.033 312.58 113.865 312.582 113.695C312.585 113.525 312.63 113.358 312.715 113.21C312.8 113.063 312.92 112.939 313.066 112.85C316.044 109.58 321.015 107.575 326.023 106.131C329.819 105.036 336.441 102.2 340.582 102.583C344.593 102.954 345.992 107.928 345.404 110.343Z"
      fill="black" />
    <path
      d="M285.943 96.0451C284.516 98.8413 284.257 102.09 285.225 105.076C286.209 108.04 288.05 110.646 290.517 112.563C296.568 117.41 304.895 118.077 312.65 118.01C319.446 117.951 326.232 117.486 332.973 116.618C335.232 116.418 337.451 115.903 339.567 115.087C342.098 113.993 344.322 111.986 345.223 109.381C346.124 106.776 345.485 103.586 343.345 101.848C341.465 100.32 338.872 100.11 336.453 99.965L322.614 99.1338C323.981 97.7509 325.802 96.9688 327.467 95.9634C329.676 94.6296 331.143 92.3902 332.75 90.3712C335.224 87.4152 337.917 84.6483 340.805 82.0937C341.255 84.676 342.89 86.7964 344.813 88.5782C346.737 90.3599 348.954 91.7943 350.954 93.4907C355.796 97.5994 359.283 103.176 364.376 106.97C367.879 106.05 371.154 104.416 373.995 102.17L372.016 98.5869C371.851 98.2182 371.594 97.8978 371.27 97.6567C370.71 97.3122 369.987 97.4897 369.337 97.3922C367.598 97.1316 366.839 95.1253 366.156 93.5058C364.283 89.0596 360.697 85.61 357.634 81.8814C355.373 79.129 353.368 76.1768 351.643 73.0612C350.614 71.2031 349.672 69.2684 348.275 67.6676C346.879 66.0668 344.923 64.8082 342.798 64.8037C340.92 64.7998 339.189 65.7524 337.574 66.7106C332.658 69.6294 327.927 72.8504 323.41 76.3552C321.046 78.1894 318.697 80.1272 315.924 81.252C314.757 81.7255 313.526 82.0491 312.406 82.6252C310.444 83.6343 308.955 85.3416 307.352 86.8572C301.635 92.2628 293.808 95.7651 285.943 96.0451Z"
      fill="#161624" />
    <path
      d="M314.881 57.5704C314.817 59.2227 314.465 60.8512 313.842 62.383C313.526 63.1469 313.056 63.8376 312.461 64.412C311.866 64.9864 311.159 65.4321 310.384 65.7214C309.284 66.016 308.131 66.0534 307.014 65.8307C306.04 65.7291 305.101 65.4095 304.268 64.8958C302.97 64.0041 302.323 62.4131 302.087 60.856C301.852 59.3008 301.957 57.7117 301.806 56.1452C301.659 54.88 301.418 53.6273 301.086 52.3977C300.984 51.9886 300.88 51.5815 300.778 51.1743C300.678 50.7671 300.58 50.3599 300.49 49.9528C300.407 49.5701 300.329 49.1855 300.263 48.7991C300.209 48.473 300.16 48.145 300.124 47.8151C300.091 46.8371 299.928 45.8679 299.639 44.9328C299.368 44.3264 299.029 43.7528 298.628 43.2231C298.457 42.978 298.291 42.7329 298.138 42.4784C297.696 41.8171 297.491 41.0259 297.555 40.2333C297.573 40.1108 297.603 39.9902 297.644 39.8733C297.659 39.828 297.676 39.7828 297.695 39.7394C297.864 39.6934 298.02 39.6067 298.149 39.4867C298.277 39.3668 298.374 39.2174 298.432 39.0514C298.497 38.6947 298.466 38.3273 298.343 37.9863C298.202 37.5098 298.01 37.0502 297.768 36.6158C297.61 36.3293 297.072 35.8128 297.068 35.4848C297.061 34.825 298.351 34.2934 298.873 34.0333C300.468 33.2351 302.246 32.8747 304.026 32.9889C305.167 33.0662 306.405 33.4168 307.035 34.3726C307.601 35.234 307.525 36.35 307.766 37.351C307.792 37.4965 307.853 37.6333 307.946 37.7488C308.069 37.8609 308.224 37.932 308.389 37.9523C308.668 38.0079 308.955 38.0193 309.238 37.9863H309.24C309.314 37.9804 309.389 37.9696 309.462 37.9542C309.903 37.873 310.319 37.6932 310.681 37.4283C310.914 37.3661 311.15 37.3152 311.388 37.2756C311.397 37.2746 311.407 37.2727 311.416 37.2699C312.361 40.2502 312.484 43.4454 313.257 46.4804C313.64 47.9904 314.189 49.4815 314.266 51.0348C314.272 51.1026 314.274 51.1724 314.275 51.2421C314.287 51.7417 314.247 52.245 314.268 52.7426C314.275 52.9667 314.3 53.1899 314.343 53.4099C314.428 53.7639 314.533 54.1126 314.658 54.4543L314.664 54.4712C314.7 54.5806 314.734 54.6918 314.762 54.803C314.783 54.8841 314.802 54.9633 314.817 55.0443L314.819 55.05C314.958 55.883 314.979 56.7315 314.881 57.5704Z"
      fill="#FBBEBE" />
    <path
      d="M301.644 38.0784C307.79 38.0784 312.772 33.0989 312.772 26.9564C312.772 20.8139 307.79 15.8345 301.644 15.8345C295.498 15.8345 290.516 20.8139 290.516 26.9564C290.516 33.0989 295.498 38.0784 301.644 38.0784Z"
      fill="#FBBEBE" />
    <path
      d="M372.294 87.5543C371.972 84.5199 370.893 81.6149 369.156 79.1054C369.444 80.8208 369.734 82.5356 370.023 84.2498C369.663 84.3539 369.28 84.3508 368.922 84.2406C368.563 84.1304 368.245 83.9181 368.005 83.6296C367.537 83.0448 367.178 82.3799 366.947 81.6672C365.683 78.5304 364.03 75.5647 362.026 72.8394C354.942 72.2494 347.939 69.3143 341.709 65.8929C335.477 62.4733 329.645 58.3733 323.497 54.8086C322.431 54.1646 321.32 53.5977 320.173 53.112C318.25 52.341 316.09 51.9414 314.266 51.0347C314.143 50.9744 314.021 50.9103 313.9 50.8443C313.488 50.6203 313.098 50.3584 312.735 50.062C312.538 49.9026 312.352 49.7314 312.176 49.5492C311.266 48.4911 310.545 47.2848 310.043 45.9827C309.064 43.8186 308.715 41.2078 307.738 39.0437C308.187 38.6243 308.692 38.2685 309.238 37.9862H309.24C309.319 37.9447 309.398 37.9051 309.479 37.8674C309.866 37.6855 310.268 37.5385 310.681 37.4282C310.914 37.366 311.15 37.3151 311.388 37.2755C311.397 37.2745 311.407 37.2727 311.416 37.2699C312.518 37.0904 313.647 37.1796 314.707 37.53C316.258 38.0541 317.565 39.1003 318.868 40.0899C320.986 41.5808 323.016 43.1907 324.951 44.912C326.026 45.9412 327.007 47.0722 328.163 48.0073C329.124 48.7484 330.137 49.4193 331.194 50.0149C337.45 53.7398 343.707 57.464 349.965 61.1877C352.083 62.4488 354.203 63.7099 356.274 65.0446C359.42 67.0729 362.453 69.2709 365.484 71.467C367.27 72.7602 369.055 74.054 370.84 75.3484C371.426 75.7218 371.94 76.1967 372.358 76.7509C372.728 77.3801 372.958 78.0816 373.032 78.8075C373.48 81.7404 373.227 84.7377 372.294 87.5543Z"
      fill="#FBBEBE" />
    <path
      d="M317.641 65.9342C316.891 69.299 313.488 71.3331 311.71 74.2888C309.499 77.9572 310.401 82.2212 311.231 86.4231C309.714 87.7294 308.197 89.0358 306.679 90.3421C305.842 91.0604 305.004 91.7823 304.103 92.4176C302.788 93.298 301.414 94.0865 299.991 94.7777C298.648 95.4677 297.305 96.1582 295.962 96.8494C294.714 97.551 293.391 98.1112 292.019 98.5196C289.372 99.1982 286.562 98.7232 283.944 97.9371C283.635 97.8562 283.339 97.7351 283.061 97.5771C282.898 97.4797 282.756 97.3509 282.643 97.1982C282.385 96.7357 282.291 96.1995 282.377 95.6769C282.643 91.2734 283.72 86.9622 284.793 82.6831C285.366 80.1159 286.138 77.5969 287.1 75.1484C288.043 73.0505 289.128 71.0187 290.346 69.0672C291.69 66.6117 293.283 64.3005 295.099 62.1697C295.983 61.3496 296.727 60.3906 297.302 59.3307C297.971 57.8038 297.713 56.0526 297.849 54.39C297.952 53.1408 298.284 51.9212 298.827 50.7914V50.7895C299.118 50.1809 299.468 49.6025 299.872 49.0627C300.055 49.4888 300.238 49.9142 300.421 50.3389C300.542 50.6179 300.661 50.8963 300.78 51.1741C300.934 51.5322 301.088 51.8891 301.24 52.2448C301.679 53.2665 302.118 54.2876 302.556 55.308C303.03 56.5933 303.705 57.7953 304.556 58.869C304.945 59.4187 305.469 59.8583 306.079 60.1448C306.689 60.4312 307.362 60.5547 308.034 60.5033C308.706 60.4518 309.353 60.2271 309.912 59.8511C310.471 59.4751 310.922 58.9607 311.223 58.3581C311.857 57.2332 312.316 56.0185 312.585 54.7557C312.957 53.2181 313.009 51.6202 312.736 50.0619C312.281 47.0608 311.004 43.9957 310.076 41.2077C309.698 40.2781 309.48 39.2916 309.429 38.2896C309.431 38.177 309.443 38.0647 309.463 37.954C309.469 37.9257 309.475 37.8956 309.48 37.8673C309.867 37.6854 310.269 37.5384 310.682 37.4281C310.916 37.3659 311.151 37.315 311.389 37.2754C312.206 41.694 313.024 46.1126 313.843 50.5312C313.862 50.6349 313.882 50.7386 313.901 50.8442C314.018 51.4775 314.137 52.1109 314.269 52.7424C314.388 53.3155 314.516 53.8867 314.66 54.4541L314.665 54.471C314.714 54.6634 314.765 54.8537 314.818 55.0441L314.82 55.0498C314.965 55.5701 315.127 56.0866 315.31 56.5955C316.419 59.6625 318.353 62.7503 317.641 65.9342Z"
      fill="#2F49D1" />
    <path
      d="M362.803 113.221C362.768 113.869 362.893 114.516 363.168 115.104C363.865 116.376 365.536 116.666 366.982 116.785C375.429 117.479 383.927 117.22 392.316 116.013C392.772 115.982 393.213 115.845 393.606 115.613C394.799 114.777 394.063 112.74 392.761 112.088C391.459 111.436 389.913 111.593 388.484 111.311C387.064 110.954 385.712 110.368 384.481 109.576C381.583 107.912 378.727 106.177 375.914 104.371C374.239 103.296 372.262 102.149 370.375 102.786C365.265 104.514 362.769 107.712 362.803 113.221Z"
      fill="#161624" />
    <path
      d="M300.533 49.7171V49.719C300.52 49.7982 300.507 49.8755 300.49 49.9528C300.469 50.081 300.445 50.211 300.42 50.3392C300.186 51.5362 299.9 52.7276 299.569 53.9114C298.664 57.182 297.451 60.3998 296.248 63.5705C293.019 72.0722 289.789 80.5745 286.559 89.0775C285.744 91.2189 284.931 93.3623 284.005 95.4604C283.696 96.1597 283.377 96.8647 283.06 97.5773C281.925 100.128 280.835 102.761 280.473 105.476C280.135 107.262 280.096 109.092 280.358 110.892C280.72 112.671 281.8 114.409 283.492 115.067C284.318 115.389 285.501 115.821 285.275 116.679C285.152 117.15 284.616 117.38 284.135 117.459C283.5 117.56 282.851 117.521 282.233 117.343C281.615 117.165 281.043 116.853 280.559 116.43C279.656 115.629 278.962 114.383 277.76 114.249C276.929 114.158 276.163 114.656 275.401 115.005C272.292 116.424 268.671 115.431 265.406 114.422C265.663 113.101 266.991 112.23 268.309 111.966C269.627 111.7 270.991 111.889 272.336 111.853C272.766 111.876 273.194 111.766 273.56 111.538C273.888 111.237 274.118 110.844 274.22 110.411C275.086 107.846 275.731 105.211 276.146 102.535C276.58 99.7395 276.761 96.9006 277.379 94.1389C277.86 91.9843 278.603 89.8975 279.241 87.7825C280.474 83.4277 281.486 79.0135 282.274 74.5568C282.672 72.7052 282.957 70.8311 283.128 68.9449C283.236 67.3803 283.185 65.8081 283.336 64.2492C283.589 62.221 284.012 60.2176 284.601 58.2603C285.178 56.1245 285.755 53.99 286.331 51.8567C287.185 48.6992 288.102 45.4192 290.267 42.9648C291.019 42.1007 291.941 41.4002 292.975 40.9067C294.009 40.4132 295.133 40.1372 296.278 40.0957C296.708 40.0952 297.136 40.1413 297.555 40.2333C297.625 40.2503 297.695 40.2672 297.764 40.2861C298.221 40.4055 298.66 40.5869 299.068 40.8252C299.735 40.4011 300.075 40.55 300.518 41.2041C300.907 41.8964 301.09 42.685 301.046 43.4775C301.084 45.5693 300.912 47.6595 300.533 49.7171Z"
      fill="#FBBEBE" />
    <path
      d="M301.266 52.2165L301.238 52.2448L301.085 52.3975L299.569 53.9112L298.825 50.7914L296.277 40.0955C296.707 40.095 297.135 40.1411 297.554 40.2331C297.572 40.1106 297.602 39.99 297.643 39.873L297.764 40.2859L298.627 43.2228L300.263 48.7989L300.532 49.7169V49.7188L301.266 52.2165Z"
      fill="#2F49D1" />
    <path
      d="M310.89 18.094C310.889 19.0844 310.692 20.0648 310.311 20.9793C309.931 21.8937 309.374 22.7242 308.672 23.4233C308.418 23.6777 308.145 23.9133 307.856 24.128C306.555 25.1087 304.97 25.6394 303.34 25.6402H294.291C292.291 25.6371 290.375 24.8411 288.962 23.4269C287.549 22.0128 286.756 20.0961 286.756 18.0977C286.756 16.0993 287.549 14.1826 288.962 12.7684C290.375 11.3543 292.291 10.5583 294.291 10.5552H303.34C305.339 10.5604 307.255 11.3561 308.67 12.7686C310.085 14.181 310.883 16.0955 310.89 18.094Z"
      fill="#2F2E41" />
    <path
      d="M319.374 18.6622C323.645 18.6622 327.107 15.2019 327.107 10.9334C327.107 6.6649 323.645 3.20459 319.374 3.20459C315.103 3.20459 311.641 6.6649 311.641 10.9334C311.641 15.2019 315.103 18.6622 319.374 18.6622Z"
      fill="#2F2E41" />
    <path opacity="0.1"
      d="M319.185 3.20459C319.09 3.20459 318.996 3.20835 318.902 3.21174C320.903 3.28442 322.797 4.12977 324.187 5.56992C325.576 7.01007 326.352 8.93275 326.352 10.9334C326.352 12.9341 325.576 14.8567 324.187 16.2969C322.797 17.737 320.903 18.5824 318.902 18.6551C318.996 18.6584 319.09 18.6622 319.185 18.6622C321.236 18.6622 323.203 17.8479 324.653 16.3985C326.104 14.9491 326.918 12.9832 326.918 10.9334C326.918 8.8836 326.104 6.91774 324.653 5.46831C323.203 4.01888 321.236 3.20459 319.185 3.20459Z"
      fill="black" />
    <path opacity="0.1"
      d="M282.406 3.20459C282.501 3.20459 282.595 3.20835 282.689 3.21174C280.688 3.28442 278.794 4.12977 277.405 5.56992C276.015 7.01007 275.239 8.93275 275.239 10.9334C275.239 12.9341 276.015 14.8567 277.405 16.2969C278.794 17.737 280.688 18.5824 282.689 18.6551C282.595 18.6584 282.501 18.6622 282.406 18.6622C280.356 18.6604 278.391 17.8453 276.942 16.3961C275.493 14.9469 274.68 12.982 274.68 10.9334C274.68 8.88478 275.493 6.91995 276.942 5.47071C278.391 4.02148 280.356 3.20639 282.406 3.20459Z"
      fill="black" />
    <path opacity="0.1"
      d="M307.856 24.1279C306.555 25.1086 304.969 25.6393 303.339 25.6401H294.29C292.66 25.6393 291.075 25.1086 289.773 24.1279H307.856Z"
      fill="black" />
    <path d="M366.289 80.1303C366.289 80.1303 368.239 85.7446 370.023 84.2497L368.601 76.9111L366.289 80.1303Z"
      fill="#FBBEBE" />
    <path
      d="M603.524 251.343C605.34 252.003 607.284 252.232 609.203 252.013C611.123 251.793 612.965 251.131 614.585 250.079C616.205 249.027 617.558 247.613 618.538 245.948C619.518 244.284 620.097 242.415 620.231 240.489C620.365 238.562 620.05 236.631 619.309 234.848C618.569 233.064 617.424 231.477 615.965 230.211C614.507 228.945 612.774 228.035 610.903 227.552C609.032 227.07 607.075 227.028 605.185 227.431L605.497 233.848L602.459 228.348C599.478 229.749 597.174 232.274 596.055 235.371C595.658 236.456 595.416 237.591 595.338 238.744C595.146 241.448 595.842 244.141 597.319 246.414C598.796 248.688 600.974 250.418 603.524 251.343Z"
      fill="#4BDE97" />
    <path
      d="M618.555 325.774C617.483 320.317 622.13 315.478 626.72 312.333C631.31 309.188 636.673 306.098 638.239 300.761C640.49 293.09 633.785 286.066 628.567 280.008C624.696 275.512 621.371 270.574 618.663 265.296C617.577 263.18 616.579 260.968 616.294 258.607C615.882 255.207 616.975 251.823 618.076 248.58C621.745 237.776 625.666 227.062 629.842 216.439"
      stroke="#161624" stroke-miterlimit="10" />
    <path
      d="M604.037 249.691C605.853 250.35 607.797 250.58 609.717 250.36C611.636 250.141 613.479 249.479 615.099 248.427C616.719 247.374 618.072 245.96 619.052 244.296C620.031 242.632 620.611 240.763 620.745 238.836C620.879 236.91 620.563 234.979 619.823 233.195C619.082 231.412 617.938 229.824 616.479 228.558C615.02 227.292 613.287 226.382 611.416 225.9C609.546 225.417 607.588 225.376 605.699 225.778L606.011 232.196L602.973 226.696C599.991 228.096 597.688 230.622 596.569 233.719C596.172 234.803 595.93 235.939 595.852 237.092C595.66 239.796 596.355 242.488 597.832 244.762C599.309 247.035 601.488 248.766 604.037 249.691V249.691Z"
      stroke="#161624" stroke-miterlimit="10" />
    <path
      d="M617.029 214.223C617.742 212.258 618.938 210.504 620.507 209.122C622.076 207.741 623.968 206.776 626.008 206.317L627.036 212.418L628.94 206.01C631.584 206.049 634.147 206.927 636.26 208.517C638.372 210.108 639.924 212.327 640.691 214.856C641.459 217.385 641.403 220.093 640.531 222.588C639.658 225.083 638.015 227.236 635.839 228.737C633.662 230.238 631.065 231.009 628.421 230.938C625.778 230.867 623.225 229.959 621.132 228.344C619.039 226.729 617.514 224.49 616.776 221.952C616.039 219.414 616.127 216.708 617.029 214.223H617.029Z"
      fill="#4BDE97" />
    <path
      d="M617.715 212.02C618.428 210.055 619.623 208.301 621.193 206.919C622.762 205.537 624.654 204.573 626.694 204.114L627.721 210.215L629.625 203.807C632.27 203.846 634.833 204.724 636.945 206.314C639.057 207.904 640.609 210.124 641.377 212.653C642.145 215.182 642.088 217.89 641.216 220.385C640.344 222.88 638.701 225.033 636.524 226.534C634.348 228.035 631.75 228.806 629.107 228.735C626.463 228.664 623.911 227.756 621.818 226.141C619.725 224.525 618.199 222.287 617.462 219.749C616.724 217.211 616.813 214.505 617.715 212.02H617.715Z"
      stroke="#161624" stroke-miterlimit="10" />
    <path
      d="M626.376 280.132C629.256 281.176 632.419 281.124 635.263 279.987C638.107 278.85 640.433 276.706 641.797 273.965C643.162 271.224 643.469 268.077 642.661 265.124C641.853 262.171 639.987 259.618 637.416 257.952L635.953 262.876L634.916 256.703C634.905 256.698 634.895 256.694 634.884 256.691C633.344 256.132 631.708 255.881 630.071 255.954C628.434 256.026 626.827 256.42 625.342 257.114C623.857 257.807 622.524 258.786 621.418 259.994C620.312 261.203 619.455 262.618 618.896 264.157C618.337 265.697 618.088 267.332 618.161 268.968C618.234 270.604 618.63 272.21 619.324 273.693C620.019 275.177 620.999 276.509 622.209 277.614C623.419 278.718 624.835 279.574 626.376 280.132H626.376Z"
      fill="#4BDE97" />
    <path
      d="M626.97 277.9C629.849 278.944 633.013 278.893 635.857 277.755C638.701 276.618 641.027 274.475 642.391 271.734C643.756 268.993 644.063 265.846 643.255 262.892C642.447 259.939 640.58 257.386 638.01 255.721L636.547 260.645L635.509 254.472C635.499 254.467 635.488 254.463 635.478 254.46C633.937 253.9 632.302 253.65 630.665 253.722C629.028 253.795 627.421 254.189 625.936 254.882C624.451 255.575 623.118 256.554 622.012 257.763C620.906 258.972 620.049 260.386 619.49 261.926C618.931 263.466 618.681 265.1 618.755 266.736C618.828 268.373 619.224 269.978 619.918 271.462C620.613 272.945 621.593 274.278 622.803 275.382C624.013 276.487 625.429 277.343 626.97 277.9H626.97Z"
      stroke="#161624" stroke-miterlimit="10" />
    <path
      d="M613.389 300.837C613.884 303.653 615.333 306.213 617.492 308.088C619.652 309.963 622.391 311.039 625.25 311.135C628.108 311.231 630.914 310.342 633.194 308.617C635.475 306.891 637.093 304.434 637.777 301.658C638.46 298.882 638.168 295.956 636.949 293.369C635.729 290.783 633.658 288.694 631.081 287.454C628.503 286.213 625.578 285.895 622.794 286.555C620.011 287.214 617.539 288.809 615.793 291.074L621.351 299.435L613.757 294.997C613.168 296.886 613.042 298.889 613.389 300.837Z"
      fill="#4BDE97" />
    <path
      d="M613.903 299.185C614.398 302.001 615.846 304.561 618.006 306.436C620.165 308.311 622.904 309.386 625.763 309.483C628.622 309.579 631.427 308.69 633.708 306.964C635.989 305.239 637.607 302.782 638.29 300.006C638.974 297.23 638.681 294.303 637.462 291.717C636.243 289.131 634.171 287.042 631.594 285.801C629.017 284.56 626.091 284.243 623.308 284.902C620.525 285.561 618.053 287.157 616.307 289.422L621.865 297.783L614.27 293.345C613.681 295.234 613.555 297.237 613.903 299.185V299.185Z"
      stroke="#161624" stroke-miterlimit="10" />
    <path
      d="M5.39871 281.716C6.59171 282.149 7.86914 282.3 9.13031 282.156C10.3915 282.011 11.6019 281.576 12.6662 280.885C13.7305 280.194 14.6196 279.265 15.2634 278.171C15.9071 277.078 16.288 275.85 16.3759 274.584C16.4639 273.318 16.2565 272.05 15.7701 270.878C15.2837 269.706 14.5316 268.663 13.5732 267.831C12.6147 266.999 11.476 266.401 10.2469 266.084C9.01772 265.768 7.73173 265.74 6.49023 266.005L6.69539 270.221L4.69944 266.608C2.74052 267.528 1.22718 269.187 0.491972 271.222C0.230868 271.934 0.0721363 272.68 0.0205121 273.438C-0.105473 275.214 0.351401 276.983 1.3219 278.477C2.2924 279.971 3.72363 281.108 5.39871 281.716Z"
      fill="#4BDE97" />
    <path
      d="M15.2746 330.618C14.57 327.032 17.623 323.854 20.6388 321.787C23.6545 319.721 27.1782 317.691 28.2071 314.184C29.686 309.144 25.281 304.529 21.8526 300.549C19.309 297.595 17.1246 294.35 15.3452 290.883C14.5716 289.521 14.0447 288.033 13.7887 286.488C13.5184 284.254 14.2365 282.031 14.9599 279.9C17.3699 272.802 19.9466 265.763 22.69 258.783"
      stroke="#161624" stroke-miterlimit="10" />
    <path
      d="M5.73661 280.63C6.92961 281.064 8.20704 281.214 9.46821 281.07C10.7294 280.926 11.9398 280.491 13.0041 279.8C14.0684 279.108 14.9575 278.179 15.6012 277.086C16.245 275.992 16.6259 274.764 16.7138 273.499C16.8017 272.233 16.5943 270.964 16.108 269.792C15.6216 268.62 14.8695 267.578 13.911 266.746C12.9526 265.914 11.8139 265.316 10.5848 264.999C9.35562 264.682 8.06962 264.655 6.82813 264.919L7.03329 269.136L5.03733 265.522C3.07842 266.442 1.56507 268.102 0.829863 270.136C0.568762 270.849 0.410032 271.595 0.358405 272.352C0.232411 274.129 0.689283 275.898 1.65978 277.392C2.63029 278.886 4.06152 280.022 5.73661 280.63V280.63Z"
      stroke="#161624" stroke-miterlimit="10" />
    <path
      d="M14.2727 257.327C14.7409 256.036 15.5267 254.884 16.5577 253.976C17.5887 253.068 18.8317 252.434 20.1722 252.133L20.847 256.141L22.0982 251.931C23.8354 251.957 25.5195 252.534 26.9073 253.578C28.2951 254.623 29.3148 256.082 29.8191 257.743C30.3235 259.405 30.2865 261.184 29.7134 262.823C29.1403 264.462 28.0609 265.877 26.6308 266.863C25.2008 267.849 23.4941 268.356 21.7574 268.309C20.0206 268.263 18.3436 267.666 16.9683 266.605C15.5931 265.543 14.5909 264.073 14.1064 262.405C13.6219 260.738 13.6801 258.96 14.2727 257.327Z"
      fill="#4BDE97" />
    <path
      d="M14.7239 255.88C15.1921 254.589 15.9779 253.436 17.0089 252.529C18.0398 251.621 19.2828 250.987 20.6233 250.685L21.2982 254.694L22.5494 250.484C24.2866 250.51 25.9706 251.086 27.3584 252.131C28.7462 253.176 29.7659 254.634 30.2703 256.296C30.7747 257.958 30.7377 259.736 30.1646 261.376C29.5915 263.015 28.512 264.43 27.082 265.416C25.6519 266.402 23.9453 266.908 22.2085 266.862C20.4718 266.815 18.7947 266.218 17.4195 265.157C16.0443 264.096 15.0421 262.626 14.5576 260.958C14.073 259.291 14.1313 257.512 14.7239 255.88V255.88Z"
      stroke="#161624" stroke-miterlimit="10" />
    <path
      d="M20.4148 300.63C22.3067 301.316 24.3851 301.282 26.2537 300.535C28.1223 299.788 29.6505 298.38 30.5469 296.579C31.4434 294.778 31.6455 292.71 31.1147 290.77C30.5838 288.83 29.3572 287.152 27.6686 286.058L26.7072 289.293L26.0255 285.237C26.0187 285.234 26.0118 285.232 26.0046 285.23C24.9926 284.862 23.918 284.697 22.8422 284.744C21.7664 284.792 20.7105 285.051 19.7349 285.506C18.7593 285.962 17.883 286.605 17.1562 287.399C16.4294 288.193 15.8663 289.123 15.4991 290.134C15.1319 291.146 14.9677 292.22 15.0161 293.295C15.0644 294.371 15.3242 295.426 15.7808 296.4C16.2373 297.375 16.8815 298.25 17.6766 298.976C18.4718 299.702 19.4022 300.264 20.4148 300.63Z"
      fill="#4BDE97" />
    <path
      d="M20.8053 299.164C22.6972 299.85 24.7756 299.816 26.6442 299.069C28.5128 298.322 30.041 296.914 30.9375 295.113C31.8339 293.312 32.036 291.244 31.5052 289.304C30.9743 287.364 29.7477 285.686 28.0591 284.592L27.0977 287.827L26.416 283.771C26.4092 283.768 26.4023 283.766 26.3951 283.763C25.3833 283.397 24.3092 283.233 23.2339 283.281C22.1587 283.329 21.1035 283.588 20.1285 284.044C18.1595 284.964 16.6368 286.628 15.8956 288.67C15.1543 290.713 15.2552 292.966 16.1759 294.934C17.0966 296.902 18.7619 298.423 20.8053 299.164V299.164Z"
      stroke="#161624" stroke-miterlimit="10" />
    <path
      d="M11.8818 314.234C12.2071 316.084 13.159 317.766 14.5778 318.998C15.9966 320.23 17.7961 320.937 19.6744 321C21.5528 321.063 23.3958 320.479 24.8943 319.345C26.3928 318.212 27.4557 316.597 27.9048 314.773C28.3539 312.949 28.1619 311.027 27.3609 309.327C26.5599 307.628 25.1986 306.256 23.5054 305.441C21.8122 304.625 19.8901 304.417 18.0613 304.85C16.2325 305.283 14.6084 306.331 13.4612 307.819L17.113 313.313L12.1233 310.397C11.7364 311.638 11.6536 312.954 11.8818 314.234Z"
      fill="#4BDE97" />
    <path
      d="M12.2197 313.149C12.545 314.999 13.4969 316.681 14.9157 317.912C16.3345 319.144 18.134 319.851 20.0123 319.914C21.8907 319.978 23.7336 319.393 25.2322 318.26C26.7307 317.126 27.7936 315.512 28.2427 313.688C28.6918 311.864 28.4998 309.941 27.6988 308.242C26.8977 306.543 25.5365 305.17 23.8433 304.355C22.1501 303.54 20.228 303.331 18.3992 303.765C16.5704 304.198 14.9463 305.246 13.7991 306.734L17.4509 312.227L12.4612 309.312C12.0743 310.553 11.9915 311.869 12.2197 313.149V313.149Z"
      stroke="#161624" stroke-miterlimit="10" />
    <path
      d="M288.284 204.355C293.911 204.355 298.474 198.454 298.474 191.175C298.474 183.896 293.911 177.995 288.284 177.995C282.656 177.995 278.094 183.896 278.094 191.175C278.094 198.454 282.656 204.355 288.284 204.355Z"
      fill="#2F2E41" />
    <path
      d="M343.729 204.654C349.357 204.654 353.919 198.754 353.919 191.475C353.919 184.196 349.357 178.295 343.729 178.295C338.101 178.295 333.539 184.196 333.539 191.475C333.539 198.754 338.101 204.654 343.729 204.654Z"
      fill="#2F2E41" />
    <path
      d="M335.937 230.415C335.937 236.37 327.617 241.198 317.355 241.198C307.093 241.198 298.773 236.37 298.773 230.415C298.773 225.257 305.013 220.943 313.351 219.889C314.679 219.714 316.016 219.628 317.355 219.632C319.599 219.624 321.836 219.865 324.027 220.35C330.992 221.902 335.937 225.826 335.937 230.415Z"
      fill="#2F2E41" />
    <path
      d="M290.682 201.359C296.31 201.359 300.872 195.459 300.872 188.18C300.872 180.901 296.31 175 290.682 175C285.054 175 280.492 180.901 280.492 188.18C280.492 195.459 285.054 201.359 290.682 201.359Z"
      stroke="#161624" stroke-miterlimit="10" />
    <path
      d="M346.127 201.659C351.755 201.659 356.317 195.758 356.317 188.479C356.317 181.2 351.755 175.299 346.127 175.299C340.5 175.299 335.938 181.2 335.938 188.479C335.938 195.758 340.5 201.659 346.127 201.659Z"
      stroke="#161624" stroke-miterlimit="10" />
    <path
      d="M319.752 238.203C330.014 238.203 338.333 233.375 338.333 227.419C338.333 221.464 330.014 216.636 319.752 216.636C309.489 216.636 301.17 221.464 301.17 227.419C301.17 233.375 309.489 238.203 319.752 238.203Z"
      stroke="#161624" stroke-miterlimit="10" />
    <path
      d="M324.247 221.249C324.252 222.002 323.969 222.729 323.456 223.281C323.214 223.545 322.919 223.757 322.591 223.902C322.263 224.047 321.909 224.123 321.55 224.124H315.556C314.817 224.099 314.119 223.782 313.614 223.243C313.108 222.704 312.837 221.987 312.859 221.249C312.856 220.665 313.027 220.093 313.35 219.606C314.677 219.42 316.015 219.328 317.354 219.332C319.6 219.324 321.84 219.582 324.026 220.099C324.174 220.464 324.249 220.855 324.247 221.249Z"
      fill="white" />
    <path
      d="M290.681 187.581C292.336 187.581 293.678 186.24 293.678 184.585C293.678 182.931 292.336 181.59 290.681 181.59C289.025 181.59 287.684 182.931 287.684 184.585C287.684 186.24 289.025 187.581 290.681 187.581Z"
      fill="white" />
    <path
      d="M346.427 187.581C348.082 187.581 349.424 186.24 349.424 184.585C349.424 182.931 348.082 181.59 346.427 181.59C344.772 181.59 343.43 182.931 343.43 184.585C343.43 186.24 344.772 187.581 346.427 187.581Z"
      fill="white" />
    <path opacity="0.3"
      d="M349.423 215.737C351.078 215.737 352.42 214.396 352.42 212.742C352.42 211.088 351.078 209.747 349.423 209.747C347.768 209.747 346.426 211.088 346.426 212.742C346.426 214.396 347.768 215.737 349.423 215.737Z"
      fill="#2F49D1" />
    <path opacity="0.3"
      d="M276.296 215.737C277.951 215.737 279.293 214.396 279.293 212.742C279.293 211.088 277.951 209.747 276.296 209.747C274.641 209.747 273.299 211.088 273.299 212.742C273.299 214.396 274.641 215.737 276.296 215.737Z"
      fill="#2F49D1" />
  </g>
  <defs>
    <clipPath id="clip0">
      <rect width="644" height="350" fill="white" />
    </clipPath>
  </defs>
</svg>