<svg width="305" height="161" viewBox="0 0 305 161" fill="none" xmlns="http://www.w3.org/2000/svg">
<path d="M34 34.9999C5 39.4999 1.5 67.9999 1.5 67.9999V160H283.5C283.5 160 338.501 2.87749 283.5 15.4999C268.083 19.038 263.79 35.9394 248 34.9999C228.972 33.8677 231.436 3.68706 212.5 1.49991C186.5 -1.50315 189.166 30.7248 169 29.4999C156.271 28.7268 152.223 16.3579 139.5 15.4999C117.441 14.0123 125.5 48.4999 93.5 48.4999C69.6732 48.4999 57.545 31.3464 34 34.9999Z" fill="url(#paint0_linear)"/>
<path d="M34 34.9999C6 37.9999 1.5 67.9999 1.5 67.9999V160H283.5C283.5 160 338.501 2.87749 283.5 15.4999C268.083 19.038 263.79 35.9394 248 34.9999C228.972 33.8677 231.436 3.68706 212.5 1.49991C186.5 -1.50315 189.166 30.7248 169 29.4999C156.271 28.7268 152.223 16.3579 139.5 15.4999C117.441 14.0123 125.5 48.4999 93.5 48.4999C69.6732 48.4999 57.6912 32.4615 34 34.9999Z" stroke="white" stroke-width="2"/>
<defs>
<linearGradient id="paint0_linear" x1="154.722" y1="1.30225" x2="154.722" y2="160" gradientUnits="userSpaceOnUse">
<stop stop-color="white" stop-opacity="0.4"/>
<stop offset="1" stop-color="white" stop-opacity="0"/>
</linearGradient>
</defs>
</svg>
