<svg width="24" height="24" viewBox="0 0 24 24" fill="none" xmlns="http://www.w3.org/2000/svg">
<g clip-path="url(#clip0)">
<path d="M11.999 4.483L19.118 8.729L24 4.954L16.939 0.5L11.999 4.483Z" fill="white" fill-opacity="0.5"/>
<path d="M12 4.485L7.06 0.5L0 4.953L4.883 8.73L12 4.485Z" fill="white" fill-opacity="0.5"/>
<path d="M12 12.976L16.939 16.959L24 12.506L19.117 8.729L12 12.975L4.881 8.729L0 12.506L7.06 16.959L12 12.976Z" fill="white" fill-opacity="0.5"/>
<path d="M19.501 19.1871V17.0621L17.297 18.4521V18.4531C16.469 18.9801 16.092 17.9171 12.001 14.8511C7.83998 17.9791 7.52798 18.9711 6.70298 18.4521L4.50098 17.0631V19.1871L12.016 23.5001L19.501 19.1871Z" fill="white" fill-opacity="0.5"/>
</g>
<defs>
<clipPath id="clip0">
<rect width="24" height="24" fill="white"/>
</clipPath>
</defs>
</svg>
