<svg width="24" height="24" viewBox="0 0 24 24" fill="none" xmlns="http://www.w3.org/2000/svg">
<g clip-path="url(#clip0)">
<path d="M8.86962 2.60889L12.0418 8.16524L17.2173 17.2173H7.01224L4.6958 21.3911H19.3042L23.478 17.2173L15.1304 2.60889H8.86962Z" fill="white" fill-opacity="0.5"/>
<path d="M4.49577 21.8728C4.5587 21.8991 4.62672 21.9131 4.69601 21.9131H19.3044C19.4427 21.9131 19.5757 21.8583 19.6733 21.7602L23.8451 17.5884C23.8456 17.5879 23.8456 17.5879 23.8461 17.5874L23.8471 17.5864C23.8476 17.5859 23.8476 17.5849 23.8486 17.5844C23.8794 17.553 23.907 17.5181 23.9296 17.4794C23.9378 17.4649 23.9416 17.4491 23.9482 17.4341C23.9551 17.4195 23.9607 17.4058 23.9661 17.3907C23.9864 17.335 23.9999 17.2769 23.9999 17.218C23.9999 17.2165 23.9994 17.215 23.9994 17.2134C23.9989 17.1559 23.9859 17.0996 23.9666 17.0443C23.9612 17.0293 23.9556 17.0155 23.9487 17.001C23.9426 16.987 23.9388 16.9717 23.9312 16.9582L15.5835 2.34979C15.4905 2.18752 15.3178 2.0874 15.1306 2.0874H8.86983C8.7608 2.0874 8.65915 2.12434 8.57305 2.18497C8.56158 2.19338 8.55063 2.20102 8.53968 2.21045C8.49255 2.24917 8.45026 2.29299 8.41841 2.34725C8.4179 2.34776 8.4179 2.34878 8.4174 2.34929C8.4174 2.34979 8.41689 2.34979 8.41638 2.3503L0.068728 16.9587C-0.0479476 17.1633 -0.0135563 17.4206 0.152795 17.5864L4.32611 21.7597C4.37451 21.8076 4.43209 21.8463 4.49577 21.8728ZM19.0884 20.8696H5.58305L7.32146 17.7392H22.2187L19.0884 20.8696ZM7.90102 16.6958L12.0499 9.22575L16.3185 16.6958H7.90102ZM14.8279 3.13086L22.5792 16.6958H17.5201L9.76833 3.13086H14.8279ZM8.86983 3.66099L11.4446 8.16701L4.57551 20.5331L1.17281 17.1304L8.86983 3.66099Z" fill="white"/>
</g>
<defs>
<clipPath id="clip0">
<rect width="24" height="24" fill="white"/>
</clipPath>
</defs>
</svg>
