<svg width="60" height="60" viewBox="0 0 60 60" fill="none" xmlns="http://www.w3.org/2000/svg">
<g clip-path="url(#clip0)">
<path d="M43.6325 59.9999C43.2125 59.9999 42.7825 59.9474 42.3575 59.8349L3.70004 49.4824C1.05004 48.7524 -0.529962 46.0074 0.165038 43.3574L5.04254 25.1774C5.22254 24.5099 5.90754 24.1224 6.57254 24.2924C7.24004 24.4699 7.63504 25.1574 7.45754 25.8224L2.58254 43.9974C2.23504 45.3224 3.03004 46.7024 4.35754 47.0699L43 57.4174C44.3275 57.7674 45.6975 56.9774 46.0425 55.6574L47.995 48.4224C48.175 47.7549 48.8601 47.3574 49.5275 47.5399C50.195 47.7199 50.5875 48.4074 50.41 49.0724L48.46 56.2974C47.8726 58.5224 45.8475 59.9999 43.6325 59.9999Z" fill="#A0A3BD"/>
<path d="M55 45H15C12.2425 45 10 42.7575 10 40V10C10 7.2425 12.2425 5 15 5H55C57.7575 5 60 7.2425 60 10V40C60 42.7575 57.7575 45 55 45ZM15 7.5C13.6225 7.5 12.5 8.6225 12.5 10V40C12.5 41.3775 13.6225 42.5 15 42.5H55C56.3775 42.5 57.5 41.3775 57.5 40V10C57.5 8.6225 56.3775 7.5 55 7.5H15Z" fill="#A0A3BD"/>
<path d="M22.5 22.5C19.7425 22.5 17.5 20.2575 17.5 17.5C17.5 14.7425 19.7425 12.5 22.5 12.5C25.2575 12.5 27.5 14.7425 27.5 17.5C27.5 20.2575 25.2575 22.5 22.5 22.5ZM22.5 15C21.1225 15 20 16.1225 20 17.5C20 18.8775 21.1225 20 22.5 20C23.8775 20 25 18.8775 25 17.5C25 16.1225 23.8775 15 22.5 15Z" fill="#A0A3BD"/>
<path d="M11.4249 42.325C11.1049 42.325 10.7849 42.2025 10.5399 41.96C10.0524 41.4725 10.0524 40.68 10.5399 40.1925L22.3474 28.385C23.7624 26.97 26.2349 26.97 27.6499 28.385L31.1649 31.9L40.8949 20.225C41.6024 19.3775 42.6424 18.885 43.7499 18.875H43.7774C44.8724 18.875 45.9099 19.35 46.6249 20.1825L59.6999 35.4375C60.1499 35.96 60.0899 36.75 59.5649 37.2C59.0424 37.65 58.2549 37.5925 57.8024 37.065L44.7274 21.81C44.4849 21.53 44.1499 21.375 43.7774 21.375C43.5174 21.3525 43.0599 21.5325 42.8174 21.825L32.2099 34.5525C31.9849 34.8225 31.6574 34.985 31.3049 35C30.9499 35.025 30.6124 34.885 30.3649 34.635L25.8824 30.1525C25.4099 29.6825 24.5874 29.6825 24.1149 30.1525L12.3074 41.96C12.0649 42.2025 11.7449 42.325 11.4249 42.325Z" fill="#A0A3BD"/>
</g>
<defs>
<clipPath id="clip0">
<rect width="60" height="60" fill="white"/>
</clipPath>
</defs>
</svg>
