<svg width="24" height="24" viewBox="0 0 24 24" fill="none" xmlns="http://www.w3.org/2000/svg">
<path opacity="0.4" d="M2 7.91588V16.0839C2 19.6229 4.276 21.9999 7.665 21.9999H16.335C19.724 21.9999 22 19.6229 22 16.0839V7.91588C22 4.37788 19.723 1.99988 16.334 1.99988H7.665C4.276 1.99988 2 4.37788 2 7.91588Z" fill="white" fill-opacity="0.5"/>
<path d="M7.72082 12.8554L11.4688 16.6204C11.7508 16.9034 12.2498 16.9034 12.5328 16.6204L16.2808 12.8554C16.5728 12.5614 16.5718 12.0864 16.2778 11.7944C15.9838 11.5024 15.5098 11.5024 15.2168 11.7964L12.7498 14.2734V7.9184C12.7498 7.5034 12.4138 7.1684 11.9998 7.1684C11.5858 7.1684 11.2498 7.5034 11.2498 7.9184V14.2734L8.78382 11.7964C8.63682 11.6494 8.44482 11.5764 8.25182 11.5764C8.06082 11.5764 7.86882 11.6494 7.72282 11.7944C7.42982 12.0864 7.42882 12.5614 7.72082 12.8554Z" fill="white" fill-opacity="0.5"/>
</svg>
