<svg width="24" height="24" viewBox="0 0 24 24" fill="none" xmlns="http://www.w3.org/2000/svg">
<path opacity="0.4" d="M12.6593 3.71089V12.1889C12.6593 12.5811 12.341 12.8994 11.9488 12.8994C11.5566 12.8994 11.2383 12.5811 11.2383 12.1889V3.71089C11.2383 3.31868 11.5566 3.00037 11.9488 3.00037C12.341 3.00037 12.6593 3.31868 12.6593 3.71089Z" fill="white" fill-opacity="0.5"/>
<mask id="mask0" mask-type="alpha" maskUnits="userSpaceOnUse" x="6" y="11" width="12" height="10">
<path fill-rule="evenodd" clip-rule="evenodd" d="M6.50024 11.4786H17.3966V20.418H6.50024V11.4786Z" fill="white"/>
</mask>
<g mask="url(#mask0)">
<path d="M17.3969 12.1891C17.3969 12.3217 17.36 12.4525 17.288 12.5681L12.5502 20.0864C12.4195 20.2929 12.193 20.4189 11.9486 20.4189C11.7042 20.4189 11.4778 20.2929 11.347 20.0864L6.60924 12.5681C6.47187 12.3492 6.46335 12.0726 6.58935 11.8462C6.7144 11.6188 6.95219 11.4786 7.21082 11.4786H16.6864C16.945 11.4786 17.1828 11.6188 17.3079 11.8462C17.3676 11.9532 17.3969 12.0716 17.3969 12.1891Z" fill="white" fill-opacity="0.5"/>
</g>
</svg>
