<svg width="24" height="24" viewBox="0 0 24 24" fill="none" xmlns="http://www.w3.org/2000/svg">
<path opacity="0.4" d="M13.1904 15.7975L13.5176 19.4967C13.5176 20.3269 12.8379 21 11.9997 21C11.1614 21 10.4818 20.3269 10.4818 19.4967L10.8089 15.7975C10.8089 15.1463 11.3421 14.6183 11.9997 14.6183C12.6584 14.6183 13.1904 15.1463 13.1904 15.7975Z" fill="white" fill-opacity="0.5"/>
<path d="M13.1302 3.37528C13.1885 3.4331 13.4353 3.64909 13.6402 3.852C14.9234 5.03562 17.0218 8.12613 17.664 9.74284C17.7665 9.98829 17.9846 10.609 18 10.9417C18 11.2592 17.9262 11.5625 17.7808 11.8515C17.577 12.2126 17.2554 12.5006 16.8764 12.6599C16.6143 12.7613 15.8267 12.9206 15.8124 12.9206C14.9521 13.0788 13.5531 13.165 12.0066 13.165C10.535 13.165 9.19332 13.0788 8.31871 12.949C8.30329 12.9348 7.32623 12.7755 6.99137 12.6021C6.37892 12.2846 6 11.6639 6 10.9995V10.9417C6.01432 10.5086 6.39435 9.59884 6.40756 9.59884C7.04975 8.06831 9.04681 5.05089 10.3742 3.83782C10.3742 3.83782 10.7156 3.49528 10.9282 3.34692C11.2344 3.11565 11.6134 3.00001 11.9923 3.00001C12.4153 3.00001 12.8085 3.12983 13.1302 3.37528Z" fill="white" fill-opacity="0.5"/>
</svg>
