<svg width="24" height="24" viewBox="0 0 24 24" fill="none" xmlns="http://www.w3.org/2000/svg">
<path opacity="0.4" d="M22.0002 11.9999C22.0002 17.5149 17.5142 21.9999 12.0002 21.9999C6.48624 21.9999 2.00024 17.5149 2.00024 11.9999C2.00024 6.48588 6.48624 1.99988 12.0002 1.99988C17.5142 1.99988 22.0002 6.48588 22.0002 11.9999Z" fill="white" fill-opacity="0.5"/>
<path d="M16.2208 10.5575C16.2208 10.7485 16.1478 10.9405 16.0018 11.0865L12.5318 14.5735C12.3908 14.7145 12.1998 14.7935 11.9998 14.7935C11.8008 14.7935 11.6098 14.7145 11.4688 14.5735L7.99683 11.0865C7.70483 10.7935 7.70483 10.3195 7.99883 10.0265C8.29283 9.73448 8.76783 9.73548 9.05983 10.0285L11.9998 12.9815L14.9398 10.0285C15.2318 9.73548 15.7058 9.73448 15.9998 10.0265C16.1478 10.1725 16.2208 10.3655 16.2208 10.5575Z" fill="white" fill-opacity="0.5"/>
</svg>
