<svg width="56" height="56" viewBox="0 0 56 56" fill="none" xmlns="http://www.w3.org/2000/svg">
<mask id="mask0" mask-type="alpha" maskUnits="userSpaceOnUse" x="4" y="4" width="48" height="48">
<rect x="4" y="4" width="48" height="48" rx="24" fill="#C4C4C4"/>
</mask>
<g mask="url(#mask0)">
<mask id="mask1" mask-type="alpha" maskUnits="userSpaceOnUse" x="4" y="4" width="48" height="48">
<rect x="4" y="4" width="48" height="48" fill="#C4C4C4"/>
</mask>
<g mask="url(#mask1)">
<rect x="4" y="4" width="48" height="48" fill="#F5EFFF"/>
<path d="M25.1648 4.17346C25.1648 4.17346 19.1086 4.54589 16.6358 10.0686C14.1059 15.7189 15.8003 18.9064 12.529 22.1442C9.25759 25.382 8.23759 29.8848 11.8378 32.5925C16.1224 35.8169 21.266 32.0825 25.3527 33.7131C34.989 37.5616 46.615 32.8575 43.9945 25.7712C42.743 22.3858 40.4581 23.4527 39.2905 14.1788C38.5758 8.47489 34.4488 2.94208 25.1648 4.17346Z" fill="#19274B"/>
<path d="M53 51.6201H3C3 51.6201 3.67105 48.4393 4.6273 45.2451C5.58355 42.0509 7.55979 40.7122 10.1198 40.0579C10.8412 39.8734 12.1632 39.4875 13.6898 39.0346C14.5521 38.7762 15.4849 38.4944 16.4076 38.2159C19.6286 37.2361 22.7725 36.2598 22.7725 36.2598L27.9732 35.8437L28.0034 35.8404L28.0336 35.8437L32.7242 36.2195C32.7242 36.2195 35.546 37.065 38.6261 37.9777C41.5183 38.8299 44.6421 39.7425 45.8801 40.0613C48.4402 40.7189 50.4165 42.0543 51.3727 45.2485C52.3289 48.4427 53 51.6201 53 51.6201Z" fill="#FFAC32"/>
<path d="M14.5958 47.1375C14.4884 48.6507 14.2469 50.1337 13.4685 51.6201H3.00342C3.00342 51.6201 3.67447 48.4393 4.63072 45.2451C5.58697 42.0509 7.56321 40.7122 10.1233 40.0579C10.8446 39.8734 12.1666 39.4875 13.6933 39.0345C14.418 40.8464 14.7938 44.3291 14.5958 47.1375Z" fill="#FF8881"/>
<path d="M41.4077 47.1375C41.515 48.6507 41.7566 50.1337 42.535 51.6201H53.0001C53.0001 51.6201 52.329 48.4393 51.3728 45.2451C50.4165 42.0509 48.4403 40.7122 45.8802 40.0579C45.1588 39.8734 43.8369 39.4875 42.3102 39.0345C41.5855 40.8464 41.2097 44.3291 41.4077 47.1375Z" fill="#FF8881"/>
<path d="M38.6262 37.9743C37.9619 41.5443 35.6937 48.3823 28.0572 48.7346C19.5919 49.1238 17.0519 41.1416 16.4077 38.2125C19.6288 37.2328 22.7726 36.2564 22.7726 36.2564L27.9733 35.8403L28.0035 35.837L28.0337 35.8403L32.7243 36.2161C32.7243 36.2161 35.5427 37.065 38.6262 37.9743Z" fill="#FF8881"/>
<path d="M28.0302 42.9233C24.6447 42.9233 22.6987 41.2155 21.6586 39.7828C20.5413 38.2427 20.2225 36.7161 20.2124 36.6523C20.1755 36.4644 20.2963 36.2832 20.4809 36.2463C20.6688 36.2094 20.8499 36.3302 20.8868 36.5147C20.8936 36.5449 21.1989 37.9843 22.2323 39.4003C23.6046 41.2826 25.5574 42.2355 28.0302 42.2355C30.503 42.2355 32.3484 41.2826 33.5093 39.4003C34.385 37.9877 34.5293 36.5651 34.5293 36.5517C34.5461 36.3638 34.7172 36.2228 34.9051 36.243C35.093 36.2597 35.2339 36.4275 35.2138 36.6188C35.2071 36.6825 35.0527 38.2159 34.0931 39.766C33.204 41.202 31.4291 42.9233 28.0302 42.9233Z" fill="#F5EFFF"/>
<path d="M28.0305 35.837V35.8404H28.0034L28.0305 35.837Z" fill="#5D46C2"/>
<path d="M28.0037 35.8404H27.9731V35.837L28.0037 35.8404Z" fill="#5D46C2"/>
<path d="M32.6403 37.4911C32.6403 37.4911 31.3452 39.9136 27.7282 39.9136C24.232 39.9136 22.7625 37.3703 22.7625 37.3703L22.9772 35.6289L23.0141 35.337L23.3496 32.5924L31.9995 32.834L32.1437 33.8775L32.1907 34.2197L32.6403 37.4911Z" fill="#FF8881"/>
<path d="M32.1371 33.8775C30.1776 35.5384 27.0069 36.1691 22.9739 35.6289L23.0108 35.337L23.3463 32.5924L31.9962 32.834L32.1371 33.8775Z" fill="#19274B"/>
<path d="M20.0982 25.4525C18.1622 28.1535 13.9984 26.3282 14.2802 22.7448C14.5386 19.4935 18.169 20.0103 18.169 20.0103L20.0982 25.4525Z" fill="#F55B5D"/>
<path d="M18.9843 25.8316C20.3734 26.3987 21.3531 27.7609 21.3531 29.3513C21.3531 31.445 19.6487 33.1494 17.555 33.1494C15.4613 33.1494 13.7568 31.445 13.7568 29.3513C13.7568 27.5831 14.9714 26.0933 16.6122 25.6706C16.8571 25.6068 17.1154 25.5666 17.3772 25.5565C17.4174 25.6806 17.4476 25.8081 17.4577 25.9423C17.3 25.9457 17.1423 25.9625 16.9879 25.9893C15.3741 26.2577 14.1393 27.6636 14.1393 29.3513C14.1393 31.2336 15.6693 32.7636 17.5516 32.7636C19.4339 32.7636 20.9639 31.2336 20.9639 29.3513C20.9639 28.0025 20.1754 26.8348 19.038 26.2812L18.9843 25.8316Z" fill="#F5EFFF"/>
<path d="M18.3166 25.5229C18.1992 25.5229 18.0951 25.4424 18.0649 25.325C17.6858 23.7849 16.0887 22.3489 16.0753 22.3354C15.9679 22.2415 15.9578 22.0771 16.0551 21.9697C16.1491 21.8623 16.3135 21.8523 16.4209 21.9496C16.4913 22.0133 18.1555 23.5064 18.5716 25.2008C18.6051 25.3384 18.5213 25.4793 18.3837 25.5129C18.3568 25.5196 18.3367 25.5229 18.3166 25.5229Z" fill="#D1373F"/>
<path d="M17.6522 24.0601C17.6253 24.0601 17.5985 24.0567 17.5717 24.0466C16.8637 23.8084 16.1893 23.9527 16.1826 23.956C16.045 23.9862 15.9074 23.899 15.8739 23.7614C15.8437 23.6239 15.9309 23.4863 16.0685 23.4528C16.102 23.446 16.8872 23.2749 17.7361 23.5601C17.8703 23.6037 17.9441 23.7514 17.9005 23.8856C17.8602 23.9929 17.7595 24.0601 17.6522 24.0601Z" fill="#D1373F"/>
<path d="M34.4219 25.4525C36.3579 28.1535 40.5217 26.3282 40.2399 22.7448C39.9815 19.4935 36.3511 20.0103 36.3511 20.0103L34.4219 25.4525Z" fill="#F55B5D"/>
<path d="M36.0055 25.8316C34.6165 26.3987 33.6367 27.7609 33.6367 29.3513C33.6367 31.445 35.3412 33.1494 37.4349 33.1494C39.5285 33.1494 41.233 31.445 41.233 29.3513C41.233 27.5831 40.0184 26.0933 38.3777 25.6706C38.1328 25.6068 37.8744 25.5666 37.6127 25.5565C37.5724 25.6806 37.5422 25.8081 37.5322 25.9423C37.6899 25.9457 37.8476 25.9625 38.0019 25.9893C39.6158 26.2577 40.8505 27.6636 40.8505 29.3513C40.8505 31.2336 39.3205 32.7636 37.4382 32.7636C35.5559 32.7636 34.0259 31.2336 34.0259 29.3513C34.0259 28.0025 34.8144 26.8348 35.9519 26.2812L36.0055 25.8316Z" fill="#F5EFFF"/>
<path d="M36.2036 25.5229C36.1834 25.5229 36.1633 25.5196 36.1432 25.5162C36.0056 25.4827 35.9184 25.3417 35.9553 25.2042C36.3713 23.5098 38.0355 22.0133 38.106 21.9529C38.2134 21.859 38.3744 21.8691 38.4717 21.9731C38.5657 22.0804 38.5556 22.2415 38.4516 22.3388C38.4348 22.3522 36.8377 23.7883 36.4619 25.3283C36.425 25.4424 36.3176 25.5229 36.2036 25.5229Z" fill="#D1373F"/>
<path d="M36.8679 24.0601C36.7605 24.0601 36.6599 23.9929 36.623 23.8822C36.5793 23.748 36.6498 23.6004 36.7874 23.5568C37.6362 23.2716 38.4214 23.4427 38.4549 23.4494C38.5925 23.4796 38.6831 23.6172 38.6495 23.7581C38.6193 23.8956 38.4818 23.9829 38.3409 23.9527C38.3308 23.9493 37.6564 23.8084 36.9518 24.0433C36.9249 24.0567 36.8947 24.0601 36.8679 24.0601Z" fill="#D1373F"/>
<path d="M17.4007 16.0611C17.4007 16.0611 16.4545 21.9194 18.9039 27.6502C21.1217 32.8441 24.0743 34.4613 27.2182 34.5116C30.7915 34.5687 38.2737 32.5019 37.0893 15.5478C36.2874 4.09292 18.3469 4.49555 17.4007 16.0611Z" fill="#FF8881"/>
<path d="M36.8679 16.6583C32.0363 16.7825 28.6609 15.4907 26.4901 14.1687C27.3759 15.3867 28.879 16.1584 28.879 16.1584C25.7653 16.9536 23.7488 13.9943 22.8865 12.3234C20.5848 15.9135 17.2833 17.6247 17.2833 17.6247C15.2835 5.43166 23.8629 4.41838 30.8284 5.07936C37.3376 5.70008 40.5889 16.561 36.8679 16.6583Z" fill="#19274B"/>
<path d="M20.0279 15.2424C20.0279 15.2424 18.3167 18.6346 18.8804 22.1442C19.4239 25.5296 19.179 28.7809 17.5081 29.3546C17.5081 29.3546 18.6421 27.7307 17.6087 24.9357C16.5753 22.1408 16.3002 18.4366 16.988 16.7254C17.6758 15.0143 20.0279 15.2424 20.0279 15.2424Z" fill="#19274B"/>
<path d="M34.7439 15.2424C34.7439 15.2424 36.4551 18.6346 35.8914 22.1442C35.3478 25.5296 35.5928 28.7809 37.2637 29.3546C37.2637 29.3546 36.1296 27.7307 37.163 24.9357C38.1964 22.1408 38.4716 18.4366 37.7838 16.7254C37.0959 15.0143 34.7439 15.2424 34.7439 15.2424Z" fill="#19274B"/>
<path d="M20.7358 19.0305C20.7358 19.0305 22.1048 17.1247 24.4635 16.8798C24.846 16.8395 25.1849 17.1348 25.2084 17.5173V17.524C25.2319 17.9132 24.9232 18.242 24.534 18.2487C23.6482 18.2588 22.0947 18.3863 20.7358 19.0305Z" fill="#19274B"/>
<path d="M33.9689 19.0305C33.9689 19.0305 32.6 17.1247 30.2412 16.8798C29.8587 16.8395 29.5199 17.1348 29.4964 17.5173V17.524C29.4729 17.9132 29.7816 18.242 30.1708 18.2487C31.0566 18.2588 32.6134 18.3863 33.9689 19.0305Z" fill="#19274B"/>
<path d="M27.661 31.4718C26.9262 31.4718 26.3424 31.2135 26.3055 31.1967C26.1981 31.1464 26.1478 31.0189 26.1981 30.9115C26.2484 30.8041 26.3726 30.7538 26.4833 30.8041C26.5034 30.8108 27.8287 31.3913 28.889 30.6934C28.9897 30.6296 29.1205 30.6565 29.1876 30.7538C29.2514 30.8544 29.2245 30.9853 29.1272 31.0524C28.6374 31.3712 28.1206 31.4718 27.661 31.4718Z" fill="#F55B5D"/>
<path d="M28.4227 25.9893C28.416 25.9893 28.4126 25.9893 28.4059 25.9893L26.8323 25.8618C26.7148 25.8517 26.6242 25.7477 26.6343 25.6303C26.6444 25.5129 26.7484 25.4223 26.8658 25.4323L28.1811 25.5397L27.7717 21.5402C27.7583 21.4228 27.8456 21.3154 27.963 21.3054C28.0804 21.292 28.1878 21.3792 28.1979 21.4966L28.634 25.7511C28.6408 25.8148 28.6173 25.8786 28.5736 25.9222C28.5367 25.9658 28.4797 25.9893 28.4227 25.9893Z" fill="#F55B5D"/>
<path d="M24.2856 27.7038C26.2216 28.0058 28.1912 28.1367 30.8284 27.6133C30.8284 27.6133 30.6002 30.4317 27.4698 30.4417C24.8057 30.4518 24.2856 27.7038 24.2856 27.7038Z" fill="#F5EFFF"/>
<path d="M24.1313 21.5168C24.1313 22.2616 23.7924 22.8689 23.373 22.8689C22.9536 22.8689 22.6147 22.265 22.6147 21.5168C22.6147 20.7719 22.9536 20.1646 23.373 20.1646C23.7924 20.1646 24.1313 20.7719 24.1313 21.5168Z" fill="#19274B"/>
<path d="M32.1872 21.5168C32.1872 22.2616 31.8484 22.8689 31.4289 22.8689C31.0095 22.8689 30.6707 22.265 30.6707 21.5168C30.6707 20.7719 31.0095 20.1646 31.4289 20.1646C31.845 20.1646 32.1872 20.7719 32.1872 21.5168Z" fill="#19274B"/>
<path d="M21.3632 24.2882C21.3632 24.4157 21.2592 24.5197 21.1317 24.5197C21.0042 24.5197 20.9001 24.4157 20.9001 24.2882C20.9001 24.1607 21.0042 24.0567 21.1317 24.0567C21.2592 24.0533 21.3632 24.1573 21.3632 24.2882Z" fill="#F55B5D"/>
<path d="M22.4972 24.8485C22.4972 24.976 22.3932 25.08 22.2657 25.08C22.1382 25.08 22.0342 24.976 22.0342 24.8485C22.0342 24.721 22.1382 24.617 22.2657 24.617C22.3932 24.617 22.4972 24.721 22.4972 24.8485Z" fill="#F55B5D"/>
<path d="M21.3632 25.6538C21.3632 25.7813 21.2592 25.8853 21.1317 25.8853C21.0042 25.8853 20.9001 25.7813 20.9001 25.6538C20.9001 25.5263 21.0042 25.4223 21.1317 25.4223C21.2592 25.4223 21.3632 25.5263 21.3632 25.6538Z" fill="#F55B5D"/>
<path d="M22.9134 26.1202C23.0413 26.1202 23.1449 26.0165 23.1449 25.8886C23.1449 25.7608 23.0413 25.6571 22.9134 25.6571C22.7855 25.6571 22.6819 25.7608 22.6819 25.8886C22.6819 26.0165 22.7855 26.1202 22.9134 26.1202Z" fill="#F55B5D"/>
<path d="M24.1011 25.8853C24.229 25.8853 24.3327 25.7816 24.3327 25.6538C24.3327 25.5259 24.229 25.4223 24.1011 25.4223C23.9733 25.4223 23.8696 25.5259 23.8696 25.6538C23.8696 25.7816 23.9733 25.8853 24.1011 25.8853Z" fill="#F55B5D"/>
<path d="M23.7924 24.5197C23.7924 24.6472 23.6884 24.7512 23.5609 24.7512C23.4334 24.7512 23.3293 24.6472 23.3293 24.5197C23.3293 24.3922 23.4334 24.2882 23.5609 24.2882C23.6884 24.2882 23.7924 24.3922 23.7924 24.5197Z" fill="#F55B5D"/>
<path d="M34.1265 24.5197C34.2544 24.5197 34.358 24.416 34.358 24.2882C34.358 24.1603 34.2544 24.0567 34.1265 24.0567C33.9987 24.0567 33.895 24.1603 33.895 24.2882C33.895 24.416 33.9987 24.5197 34.1265 24.5197Z" fill="#F55B5D"/>
<path d="M32.9925 25.08C33.1204 25.08 33.224 24.9764 33.224 24.8485C33.224 24.7207 33.1204 24.617 32.9925 24.617C32.8646 24.617 32.761 24.7207 32.761 24.8485C32.761 24.9764 32.8646 25.08 32.9925 25.08Z" fill="#F55B5D"/>
<path d="M34.1265 25.8853C34.2544 25.8853 34.358 25.7816 34.358 25.6538C34.358 25.5259 34.2544 25.4223 34.1265 25.4223C33.9987 25.4223 33.895 25.5259 33.895 25.6538C33.895 25.7816 33.9987 25.8853 34.1265 25.8853Z" fill="#F55B5D"/>
<path d="M32.3416 26.1202C32.4695 26.1202 32.5731 26.0165 32.5731 25.8886C32.5731 25.7608 32.4695 25.6571 32.3416 25.6571C32.2138 25.6571 32.1101 25.7608 32.1101 25.8886C32.1101 26.0165 32.2138 26.1202 32.3416 26.1202Z" fill="#F55B5D"/>
<path d="M30.9224 25.6538C30.9224 25.7813 31.0264 25.8853 31.1539 25.8853C31.2814 25.8853 31.3854 25.7813 31.3854 25.6538C31.3854 25.5263 31.2814 25.4223 31.1539 25.4223C31.0264 25.4223 30.9224 25.5263 30.9224 25.6538Z" fill="#F55B5D"/>
<path d="M31.6942 24.7512C31.822 24.7512 31.9257 24.6476 31.9257 24.5197C31.9257 24.3919 31.822 24.2882 31.6942 24.2882C31.5663 24.2882 31.4626 24.3919 31.4626 24.5197C31.4626 24.6476 31.5663 24.7512 31.6942 24.7512Z" fill="#F55B5D"/>
</g>
</g>
</svg>
