<svg width="24" height="24" viewBox="0 0 24 24" fill="none" xmlns="http://www.w3.org/2000/svg">
<path fill-rule="evenodd" clip-rule="evenodd" d="M6.18518 14.2053C-0.246309 6.91814 2.96943 4.73951 3.25398 4.38535C6.32269 1.27303 6.79871 2.68967 9.20946 5.1366C11.2404 7.20791 8.60756 8.19527 9.68653 10.6529L6.18518 14.2053Z" fill="white" fill-opacity="0.5"/>
<path fill-rule="evenodd" clip-rule="evenodd" d="M12.0902 13.3824C15.3704 16.0762 16.2956 12.2233 18.619 14.5844C21.0161 17.0313 22.3944 17.525 19.355 20.6266C18.9975 20.9378 16.6951 24.4687 8.79956 16.7415L12.0902 13.3824Z" fill="white" fill-opacity="0.5"/>
<path opacity="0.4" d="M21.3749 3.85931V3.86948L11.9586 13.5151L3.44441 22.2459C3.27591 22.4085 3.06777 22.5 2.84971 22.5C2.63165 22.5 2.4235 22.4085 2.24509 22.2459C1.96756 21.9511 1.92791 21.5141 2.11623 21.1888L2.14597 21.1482C2.16579 21.1167 2.18562 21.0872 2.21535 21.0567L20.1755 2.62948C20.3242 2.46685 20.5423 2.3642 20.7702 2.3642C20.9982 2.3642 21.2163 2.46685 21.3749 2.62948C21.7019 2.97505 21.7019 3.51374 21.3749 3.85931Z" fill="white" fill-opacity="0.5"/>
</svg>
