<svg width="24" height="24" viewBox="0 0 24 24" fill="none" xmlns="http://www.w3.org/2000/svg">
<path opacity="0.4" d="M16.6756 2H7.33333C3.92889 2 2 3.92889 2 7.33333V16.6667C2 20.0711 3.92889 22 7.33333 22H16.6756C20.08 22 22 20.0711 22 16.6667V7.33333C22 3.92889 20.08 2 16.6756 2Z" fill="white" fill-opacity="0.5"/>
<path d="M7.36866 9.36896C6.91533 9.36896 6.54199 9.74229 6.54199 10.2045V17.0756C6.54199 17.529 6.91533 17.9023 7.36866 17.9023C7.83088 17.9023 8.20421 17.529 8.20421 17.0756V10.2045C8.20421 9.74229 7.83088 9.36896 7.36866 9.36896Z" fill="white" fill-opacity="0.5"/>
<path d="M12.0354 6.08899C11.5821 6.08899 11.2087 6.46232 11.2087 6.92454V17.0757C11.2087 17.529 11.5821 17.9023 12.0354 17.9023C12.4976 17.9023 12.871 17.529 12.871 17.0757V6.92454C12.871 6.46232 12.4976 6.08899 12.0354 6.08899Z" fill="white" fill-opacity="0.5"/>
<path d="M16.6399 12.9957C16.1777 12.9957 15.8043 13.369 15.8043 13.8312V17.0757C15.8043 17.529 16.1777 17.9023 16.631 17.9023C17.0932 17.9023 17.4665 17.529 17.4665 17.0757V13.8312C17.4665 13.369 17.0932 12.9957 16.6399 12.9957Z" fill="white" fill-opacity="0.5"/>
</svg>
