<svg width="24" height="24" viewBox="0 0 24 24" fill="none" xmlns="http://www.w3.org/2000/svg">
<path opacity="0.4" d="M16.34 1.99982H7.67C4.28 1.99982 2 4.37982 2 7.91982V16.0898C2 19.6198 4.28 21.9998 7.67 21.9998H16.34C19.73 21.9998 22 19.6198 22 16.0898V7.91982C22 4.37982 19.73 1.99982 16.34 1.99982Z" fill="white" fill-opacity="0.5"/>
<path d="M15.0156 13.7703L13.2366 11.9923L15.0146 10.2143C15.3566 9.87332 15.3566 9.31832 15.0146 8.97732C14.6726 8.63332 14.1196 8.63432 13.7776 8.97632L11.9986 10.7543L10.2196 8.97432C9.87758 8.63232 9.32358 8.63432 8.98158 8.97432C8.64058 9.31632 8.64058 9.87132 8.98158 10.2123L10.7616 11.9923L8.98558 13.7673C8.64358 14.1093 8.64358 14.6643 8.98558 15.0043C9.15658 15.1763 9.37958 15.2613 9.60358 15.2613C9.82858 15.2613 10.0516 15.1763 10.2226 15.0053L11.9986 13.2293L13.7786 15.0083C13.9496 15.1793 14.1726 15.2643 14.3966 15.2643C14.6206 15.2643 14.8446 15.1783 15.0156 15.0083C15.3576 14.6663 15.3576 14.1123 15.0156 13.7703Z" fill="white" fill-opacity="0.5"/>
</svg>
