<svg width="24" height="24" viewBox="0 0 24 24" fill="none" xmlns="http://www.w3.org/2000/svg">
<path opacity="0.4" d="M11.999 21.9982C11.23 21.9982 10.462 21.7062 9.87502 21.1232L9.14502 20.3932C8.86202 20.1112 8.48302 19.9552 8.08102 19.9542H7.05402C5.39402 19.9542 4.04302 18.6032 4.04302 16.9432V15.9152C4.04202 15.5142 3.88602 15.1352 3.60302 14.8502L2.88502 14.1332C1.70902 12.9642 1.70402 11.0532 2.87402 9.87621L3.60402 9.14521C3.88602 8.86221 4.04202 8.48321 4.04302 8.08121V7.05521C4.04302 5.39421 5.39402 4.04321 7.05402 4.04321H8.08202C8.48302 4.04321 8.86102 3.88721 9.14602 3.60221L9.86502 2.88521C11.034 1.70921 12.944 1.70321 14.122 2.87421L14.852 3.60421C15.136 3.88721 15.514 4.04321 15.915 4.04321H16.943C18.603 4.04321 19.954 5.39421 19.954 7.05521V8.08221C19.955 8.48321 20.111 8.86221 20.394 9.14721L21.112 9.86521C21.681 10.4312 21.996 11.1852 21.999 11.9902C22.001 12.7902 21.693 13.5432 21.132 14.1122C21.122 14.1222 21.113 14.1332 21.103 14.1422L20.393 14.8522C20.111 15.1352 19.955 15.5142 19.954 15.9162V16.9432C19.954 18.6032 18.603 19.9542 16.943 19.9542H15.915C15.514 19.9552 15.135 20.1112 14.851 20.3942L14.132 21.1122C13.546 21.7022 12.772 21.9982 11.999 21.9982Z" fill="white" fill-opacity="0.5"/>
<path fill-rule="evenodd" clip-rule="evenodd" d="M10.0428 10.0509C9.87776 10.2159 9.66376 10.3049 9.42676 10.3049C9.20476 10.3049 8.98676 10.2139 8.81176 10.0499C8.64576 9.88489 8.55176 9.65889 8.55176 9.42989C8.55176 9.21189 8.64376 8.98789 8.80576 8.81489C8.89476 8.72489 9.00076 8.65689 9.10676 8.62089C9.40876 8.48289 9.80976 8.56389 10.0478 8.81389C10.1328 8.89889 10.1978 8.99189 10.2408 9.08889C10.2878 9.19289 10.3118 9.31089 10.3118 9.42989C10.3118 9.66789 10.2168 9.88889 10.0428 10.0509ZM15.1905 8.80979C14.8495 8.46979 14.2945 8.46979 13.9535 8.80979L8.81346 13.9498C8.47246 14.2908 8.47246 14.8458 8.81346 15.1878C8.97946 15.3528 9.19846 15.4438 9.43246 15.4438C9.66646 15.4438 9.88546 15.3528 10.0505 15.1878L15.1905 10.0478C15.5315 9.70579 15.5315 9.15179 15.1905 8.80979ZM14.9058 13.7639C14.5818 13.6279 14.1978 13.7019 13.9418 13.9579C13.8888 14.0199 13.8138 14.1159 13.7628 14.2289C13.7088 14.3509 13.7018 14.4819 13.7018 14.5699C13.7018 14.6579 13.7088 14.7879 13.7628 14.9099C13.8128 15.0219 13.8728 15.1129 13.9518 15.1919C14.1328 15.3599 14.3428 15.4449 14.5768 15.4449C14.7988 15.4449 15.0168 15.3549 15.1958 15.1879C15.3548 15.0289 15.4418 14.8089 15.4418 14.5699C15.4418 14.3299 15.3548 14.1109 15.1948 13.9509C15.1068 13.8639 15.0008 13.7959 14.9058 13.7639Z" fill="white" fill-opacity="0.5"/>
</svg>
