<svg width="24" height="24" viewBox="0 0 24 24" fill="none" xmlns="http://www.w3.org/2000/svg">
<path d="M14.5715 13.5941L20.4266 7.72014C20.7929 7.35183 21 6.84877 21 6.32376V4.60099C21 3.52002 20.1423 3 19.0844 3H4.91556C3.85765 3 3 3.52002 3 4.60099V6.3547C3 6.85177 3.18462 7.33087 3.51772 7.69419L8.89711 13.5632C8.9987 13.674 9.14034 13.7368 9.28979 13.7378L14.1915 13.7518C14.3332 13.7528 14.4699 13.6969 14.5715 13.5941Z" fill="white" fill-opacity="0.5"/>
<path opacity="0.4" d="M9.0564 13.6857V20.2903C9.0564 20.5309 9.17752 20.7575 9.37582 20.8872C9.48913 20.9621 9.62003 21 9.75092 21C9.84958 21 9.94824 20.979 10.0401 20.9371L14.006 19.0886C14.2541 18.9738 14.4133 18.7213 14.4133 18.4428V13.6857H9.0564Z" fill="white" fill-opacity="0.5"/>
</svg>
