<svg width="24" height="24" viewBox="0 0 24 24" fill="none" xmlns="http://www.w3.org/2000/svg">
<path opacity="0.4" d="M22.0002 11.9998C22.0002 17.5238 17.5232 21.9998 12.0002 21.9998C6.47724 21.9998 2.00024 17.5238 2.00024 11.9998C2.00024 6.47782 6.47724 1.99982 12.0002 1.99982C17.5232 1.99982 22.0002 6.47782 22.0002 11.9998Z" fill="white" fill-opacity="0.5"/>
<path fill-rule="evenodd" clip-rule="evenodd" d="M7.52124 10.8035C6.86024 10.8035 6.32324 11.3405 6.32324 11.9995C6.32324 12.6595 6.86024 13.1975 7.52124 13.1975C8.18224 13.1975 8.71924 12.6595 8.71924 11.9995C8.71924 11.3405 8.18224 10.8035 7.52124 10.8035ZM12.0003 10.8035C11.3393 10.8035 10.8023 11.3405 10.8023 11.9995C10.8023 12.6595 11.3393 13.1975 12.0003 13.1975C12.6613 13.1975 13.1983 12.6595 13.1983 11.9995C13.1983 11.3405 12.6613 10.8035 12.0003 10.8035ZM15.2817 11.9995C15.2817 11.3405 15.8187 10.8035 16.4797 10.8035C17.1407 10.8035 17.6777 11.3405 17.6777 11.9995C17.6777 12.6595 17.1407 13.1975 16.4797 13.1975C15.8187 13.1975 15.2817 12.6595 15.2817 11.9995Z" fill="white" fill-opacity="0.5"/>
</svg>
