<svg width="24" height="24" viewBox="0 0 24 24" fill="none" xmlns="http://www.w3.org/2000/svg">
<path opacity="0.4" d="M18.8089 9.021C18.3574 9.021 17.7594 9.011 17.0149 9.011C15.199 9.011 13.7059 7.508 13.7059 5.675V2.459C13.7059 2.206 13.503 2 13.2525 2H7.96337C5.49604 2 3.5 4.026 3.5 6.509V17.284C3.5 19.889 5.59109 22 8.1703 22H16.0455C18.5059 22 20.5 19.987 20.5 17.502V9.471C20.5 9.217 20.298 9.012 20.0465 9.013C19.6238 9.016 19.1168 9.021 18.8089 9.021Z" fill="white" fill-opacity="0.5"/>
<path opacity="0.4" d="M16.0839 2.56731C15.7859 2.25631 15.2629 2.47031 15.2629 2.90131V5.53831C15.2629 6.64431 16.1739 7.55431 17.2799 7.55431C17.9769 7.56231 18.9449 7.56431 19.7679 7.56231C20.1879 7.56131 20.4019 7.05831 20.1099 6.75431C19.0549 5.65731 17.1659 3.69131 16.0839 2.56731Z" fill="white" fill-opacity="0.5"/>
<path d="M14.3672 14.5693H9.4242C9.0132 14.5693 8.6792 14.2363 8.6792 13.8253C8.6792 13.4143 9.0132 13.0803 9.4242 13.0803H14.3672C14.7782 13.0803 15.1122 13.4143 15.1122 13.8253C15.1122 14.2363 14.7782 14.5693 14.3672 14.5693Z" fill="white" fill-opacity="0.5"/>
</svg>
