<svg width="24" height="24" viewBox="0 0 24 24" fill="none" xmlns="http://www.w3.org/2000/svg">
<path opacity="0.4" d="M18.8089 9.021C18.3574 9.021 17.7594 9.011 17.0149 9.011C15.199 9.011 13.7059 7.508 13.7059 5.675V2.459C13.7059 2.206 13.503 2 13.2525 2H7.96337C5.49604 2 3.5 4.026 3.5 6.509V17.284C3.5 19.889 5.59109 22 8.1703 22H16.0455C18.5059 22 20.5 19.987 20.5 17.502V9.471C20.5 9.217 20.298 9.012 20.0465 9.013C19.6238 9.016 19.1168 9.021 18.8089 9.021Z" fill="white" fill-opacity="0.5"/>
<path opacity="0.4" d="M16.0839 2.56731C15.7859 2.25631 15.2629 2.47031 15.2629 2.90131V5.53831C15.2629 6.64431 16.1739 7.55431 17.2799 7.55431C17.9769 7.56231 18.9449 7.56431 19.7669 7.56231C20.1879 7.56131 20.4019 7.05831 20.1099 6.75431C19.0549 5.65731 17.1659 3.69131 16.0839 2.56731Z" fill="white" fill-opacity="0.5"/>
<path d="M12.9349 12.9853L14.1559 11.7633C14.4469 11.4733 14.4469 11.0023 14.1559 10.7113C13.8649 10.4203 13.3939 10.4203 13.1029 10.7113L11.8819 11.9313L10.6609 10.7113C10.3699 10.4203 9.89792 10.4203 9.60692 10.7113C9.31592 11.0023 9.31592 11.4733 9.60692 11.7633L10.8289 12.9853L9.60692 14.2063C9.31592 14.4973 9.31592 14.9683 9.60692 15.2583C9.75292 15.4043 9.94292 15.4773 10.1339 15.4773C10.3249 15.4773 10.5149 15.4043 10.6609 15.2583L11.8819 14.0383L13.1029 15.2583C13.2479 15.4043 13.4389 15.4773 13.6299 15.4773C13.8199 15.4773 14.0109 15.4043 14.1559 15.2583C14.4469 14.9683 14.4469 14.4973 14.1559 14.2063L12.9349 12.9853Z" fill="white" fill-opacity="0.5"/>
</svg>
