<svg width="24" height="24" viewBox="0 0 24 24" fill="none" xmlns="http://www.w3.org/2000/svg">
<path opacity="0.4" d="M18.8089 9.021C18.3574 9.021 17.7594 9.011 17.0149 9.011C15.199 9.011 13.7059 7.508 13.7059 5.675V2.459C13.7059 2.206 13.503 2 13.2525 2H7.96436C5.49604 2 3.5 4.026 3.5 6.509V17.284C3.5 19.889 5.59109 22 8.1703 22H16.0455C18.5059 22 20.5 19.987 20.5 17.502V9.471C20.5 9.217 20.298 9.012 20.0465 9.013C19.6238 9.016 19.1168 9.021 18.8089 9.021Z" fill="white" fill-opacity="0.5"/>
<path opacity="0.4" d="M16.0842 2.56731C15.7852 2.25631 15.2632 2.47031 15.2632 2.90131V5.53831C15.2632 6.64431 16.1732 7.55431 17.2792 7.55431C17.9772 7.56231 18.9452 7.56431 19.7672 7.56231C20.1882 7.56131 20.4022 7.05831 20.1102 6.75431C19.0552 5.65731 17.1662 3.69131 16.0842 2.56731Z" fill="white" fill-opacity="0.5"/>
<path d="M15.1052 12.7089C14.8132 12.4199 14.3432 12.4179 14.0512 12.7109L12.4622 14.3079V9.4809C12.4622 9.0699 12.1282 8.7359 11.7172 8.7359C11.3062 8.7359 10.9722 9.0699 10.9722 9.4809V14.3079L9.38224 12.7109C9.09124 12.4179 8.62024 12.4199 8.32924 12.7089C8.03724 12.9989 8.03724 13.4699 8.32624 13.7619L11.1892 16.6379H11.1902C11.2582 16.7059 11.3392 16.7609 11.4302 16.7989C11.5202 16.8359 11.6182 16.8559 11.7172 16.8559C11.8172 16.8559 11.9152 16.8359 12.0052 16.7979C12.0942 16.7609 12.1752 16.7059 12.2432 16.6389L12.2452 16.6379L15.1072 13.7619C15.3972 13.4699 15.3972 12.9989 15.1052 12.7089Z" fill="white" fill-opacity="0.5"/>
</svg>
