<svg width="24" height="24" viewBox="0 0 24 24" fill="none" xmlns="http://www.w3.org/2000/svg">
<path opacity="0.4" d="M18.8088 9.021C18.3573 9.021 17.7592 9.011 17.0146 9.011C15.1987 9.011 13.7055 7.508 13.7055 5.675V2.459C13.7055 2.206 13.5026 2 13.253 2H7.96363C5.49517 2 3.5 4.026 3.5 6.509V17.284C3.5 19.889 5.59022 22 8.16958 22H16.0453C18.5058 22 20.5 19.987 20.5 17.502V9.471C20.5 9.217 20.298 9.012 20.0465 9.013C19.6247 9.016 19.1168 9.021 18.8088 9.021Z" fill="white" fill-opacity="0.5"/>
<path opacity="0.4" d="M16.0842 2.56731C15.7852 2.25631 15.2632 2.47031 15.2632 2.90131V5.53831C15.2632 6.64431 16.1742 7.55431 17.2792 7.55431C17.9772 7.56231 18.9452 7.56431 19.7672 7.56231C20.1882 7.56131 20.4022 7.05831 20.1102 6.75431C19.0552 5.65731 17.1662 3.69131 16.0842 2.56731Z" fill="white" fill-opacity="0.5"/>
<path d="M14.3672 12.2363H12.6392V10.5093C12.6392 10.0983 12.3062 9.76428 11.8952 9.76428C11.4842 9.76428 11.1502 10.0983 11.1502 10.5093V12.2363H9.4232C9.0122 12.2363 8.6792 12.5703 8.6792 12.9813C8.6792 13.3923 9.0122 13.7263 9.4232 13.7263H11.1502V15.4523C11.1502 15.8633 11.4842 16.1973 11.8952 16.1973C12.3062 16.1973 12.6392 15.8633 12.6392 15.4523V13.7263H14.3672C14.7782 13.7263 15.1122 13.3923 15.1122 12.9813C15.1122 12.5703 14.7782 12.2363 14.3672 12.2363Z" fill="white" fill-opacity="0.5"/>
</svg>
