<svg width="24" height="24" viewBox="0 0 24 24" fill="none" xmlns="http://www.w3.org/2000/svg">
<path opacity="0.4" d="M16.3402 1.99982H7.67024C4.28024 1.99982 2.00024 4.37982 2.00024 7.91982V16.0898C2.00024 19.6198 4.28024 21.9998 7.67024 21.9998H16.3402C19.7302 21.9998 22.0002 19.6198 22.0002 16.0898V7.91982C22.0002 4.37982 19.7302 1.99982 16.3402 1.99982Z" fill="white" fill-opacity="0.5"/>
<path d="M10.8134 15.2479C10.5894 15.2479 10.3654 15.1629 10.1944 14.9919L7.82144 12.6189C7.47944 12.2769 7.47944 11.7229 7.82144 11.3819C8.16344 11.0399 8.71644 11.0389 9.05844 11.3809L10.8134 13.1359L14.9414 9.0079C15.2834 8.6659 15.8364 8.6659 16.1784 9.0079C16.5204 9.3499 16.5204 9.9039 16.1784 10.2459L11.4324 14.9919C11.2614 15.1629 11.0374 15.2479 10.8134 15.2479Z" fill="white" fill-opacity="0.5"/>
</svg>
