<svg width="24" height="24" viewBox="0 0 24 24" fill="none" xmlns="http://www.w3.org/2000/svg">
<path opacity="0.4" d="M21.3311 7.44257C20.912 7.17861 20.397 7.15526 19.958 7.37861L18.476 8.12683C17.928 8.40297 17.588 8.96135 17.588 9.58267V15.4162C17.588 16.0375 17.928 16.5949 18.476 16.873L19.957 17.6202C20.158 17.7238 20.373 17.7735 20.588 17.7735C20.846 17.7735 21.102 17.7004 21.3311 17.5573C21.7501 17.2943 22.0001 16.8385 22.0001 16.339V8.66186C22.0001 8.16236 21.7501 7.70653 21.3311 7.44257Z" fill="white" fill-opacity="0.5"/>
<path d="M11.9051 20H6.11304C3.69102 20 2 18.3299 2 15.9391V9.06091C2 6.66904 3.69102 5 6.11304 5H11.9051C14.3271 5 16.0181 6.66904 16.0181 9.06091V15.9391C16.0181 18.3299 14.3271 20 11.9051 20Z" fill="white" fill-opacity="0.5"/>
</svg>
