<svg width="24" height="24" viewBox="0 0 24 24" fill="none" xmlns="http://www.w3.org/2000/svg">
<path d="M13.3571 6.45056C13.3068 5.96422 13.2543 5.45963 13.1254 4.95611C12.7741 3.75153 11.801 3.00001 10.7576 3.00001C10.1757 2.99786 9.43954 3.35644 9.0222 3.71932L5.56287 6.61697H3.75194C2.41918 6.61697 1.34751 7.6444 1.14513 9.12705C0.973161 10.5506 0.931217 13.2379 1.14513 14.8042C1.33073 16.3706 2.35416 17.383 3.75194 17.383H5.56287L9.08931 20.3236C9.45107 20.6382 10.0897 20.9989 10.6769 20.9989C10.7146 21 10.7482 21 10.7817 21C11.845 21 12.7814 20.2206 13.1327 19.0192C13.2659 18.5082 13.312 18.0293 13.3571 17.5666L13.4043 17.1082C13.5846 15.6213 13.5846 8.36908 13.4043 6.89288L13.3571 6.45056Z" fill="white" fill-opacity="0.5"/>
<path opacity="0.4" d="M17.4066 6.49462C17.1182 6.06947 16.5468 5.96318 16.1284 6.25842C15.7142 6.55581 15.6114 7.142 15.8998 7.56607C16.7019 8.7481 17.1434 10.322 17.1434 12C17.1434 13.677 16.7019 15.252 15.8998 16.434C15.6114 16.8581 15.7142 17.4443 16.1294 17.7417C16.2846 17.8512 16.466 17.9091 16.6527 17.9091C16.9536 17.9091 17.2346 17.7578 17.4066 17.5055C18.4195 16.0132 18.9785 14.0581 18.9785 12C18.9785 9.94195 18.4195 7.98692 17.4066 6.49462Z" fill="white" fill-opacity="0.5"/>
<path opacity="0.4" d="M20.5673 3.45726C20.281 3.03319 19.7075 2.92475 19.2901 3.22107C18.8759 3.51845 18.7732 4.10464 19.0605 4.52871C20.4174 6.52776 21.165 9.18169 21.165 11.9999C21.165 14.8192 20.4174 17.4731 19.0605 19.4722C18.7732 19.8973 18.8759 20.4824 19.2912 20.7798C19.4464 20.8893 19.6267 20.9473 19.8134 20.9473C20.1143 20.9473 20.3964 20.7959 20.5673 20.5436C22.136 18.2343 23 15.2003 23 11.9999C23 8.80164 22.136 5.76657 20.5673 3.45726Z" fill="white" fill-opacity="0.5"/>
</svg>
